Montserrat-BoldItalic.ufo
<glyph name="numbersign" format="2">
  <advance width="740"/>
  <unicode hex="0023"/>
  <outline>
    <contour>
      <point x="321" y="0" type="line"/>
      <point x="485" y="0" type="line"/>
      <point x="708" y="700" type="line"/>
      <point x="544" y="700" type="line"/>
    </contour>
    <contour>
      <point x="-15" y="137" type="line"/>
      <point x="665" y="137" type="line"/>
      <point x="695" y="287" type="line"/>
      <point x="15" y="287" type="line"/>
    </contour>
    <contour>
      <point x="62" y="0" type="line"/>
      <point x="226" y="0" type="line"/>
      <point x="449" y="700" type="line"/>
      <point x="285" y="700" type="line"/>
    </contour>
    <contour>
      <point x="75" y="413" type="line"/>
      <point x="755" y="413" type="line"/>
      <point x="785" y="563" type="line"/>
      <point x="105" y="563" type="line"/>
    </contour>
  </outline>
</glyph>
<glyph name="asterisk" format="2">
  <advance width="473"/>
  <unicode hex="002A"/>
  <outline>
    <contour>
      <point x="532" y="583" type="line"/>
      <point x="478" y="693" type="line"/>
      <point x="353" y="624" type="line"/>
      <point x="368" y="614" type="line"/>
      <point x="396" y="742" type="line"/>
      <point x="263" y="742" type="line"/>
      <point x="240" y="614" type="line"/>
      <point x="259" y="624" type="line"/>
      <point x="155" y="697" type="line"/>
      <point x="73" y="582" type="line"/>
      <point x="184" y="517" type="line"/>
      <point x="189" y="549" type="line"/>
      <point x="44" y="479" type="line"/>
      <point x="98" y="370" type="line"/>
      <point x="223" y="439" type="line"/>
      <point x="207" y="450" type="line"/>
      <point x="178" y="322" type="line"/>
      <point x="313" y="322" type="line"/>
      <point x="335" y="450" type="line"/>
      <point x="318" y="442" type="line"/>
      <point x="423" y="368" type="line"/>
      <point x="504" y="483" type="line"/>
      <point x="394" y="549" type="line"/>
      <point x="387" y="513" type="line"/>
    </contour>
  </outline>
</glyph>
<glyph name="zero" format="2">
  <advance width="692"/>
  <unicode hex="0030"/>
  <outline>
    <contour>
      <point x="307" y="-16" type="curve" smooth="yes"/>
      <point x="526" y="-16"/>
      <point x="686" y="178"/>
      <point x="686" y="442" type="curve" smooth="yes"/>
      <point x="686" y="616"/>
      <point x="579" y="716"/>
      <point x="415" y="716" type="curve" smooth="yes"/>
      <point x="196" y="716"/>
      <point x="36" y="522"/>
      <point x="36" y="258" type="curve" smooth="yes"/>
      <point x="36" y="84"/>
      <point x="143" y="-16"/>
    </contour>
    <contour>
      <point x="331" y="173" type="curve" smooth="yes"/>
      <point x="297" y="173"/>
      <point x="272" y="195"/>
      <point x="272" y="264" type="curve" smooth="yes"/>
      <point x="272" y="357"/>
      <point x="309" y="527"/>
      <point x="391" y="527" type="curve" smooth="yes"/>
      <point x="425" y="527"/>
      <point x="450" y="505"/>
      <point x="450" y="436" type="curve" smooth="yes"/>
      <point x="450" y="343"/>
      <point x="413" y="173"/>
    </contour>
  </outline>
</glyph>
<glyph name="two" format="2">
  <advance width="608"/>
  <unicode hex="0032"/>
  <outline>
    <contour>
      <point x="-27" y="0" type="line"/>
      <point x="534" y="0" type="line"/>
      <point x="571" y="183" type="line"/>
      <point x="208" y="183" type="line"/>
      <point x="236" y="101" type="line"/>
      <point x="452" y="265" type="line" smooth="yes"/>
      <point x="578" y="360"/>
      <point x="619" y="429"/>
      <point x="619" y="516" type="curve" smooth="yes"/>
      <point x="619" y="631"/>
      <point x="504" y="716"/>
      <point x="348" y="716" type="curve" smooth="yes"/>
      <point x="212" y="716"/>
      <point x="98" y="654"/>
      <point x="44" y="560" type="curve"/>
      <point x="201" y="463" type="line"/>
      <point x="231" y="506"/>
      <point x="270" y="530"/>
      <point x="312" y="530" type="curve" smooth="yes"/>
      <point x="351" y="530"/>
      <point x="376" y="510"/>
      <point x="376" y="479" type="curve" smooth="yes"/>
      <point x="376" y="446"/>
      <point x="358" y="419"/>
      <point x="295" y="370" type="curve" smooth="yes"/>
      <point x="2" y="145" type="line"/>
    </contour>
  </outline>
</glyph>
<glyph name="five" format="2">
  <advance width="619"/>
  <unicode hex="0035"/>
  <guideline x="538" y="483" angle="84.8651"/>
  <outline>
    <contour>
      <point x="238" y="-16" type="curve" smooth="yes"/>
      <point x="440" y="-16"/>
      <point x="593" y="85"/>
      <point x="593" y="256" type="curve" smooth="yes"/>
      <point x="593" y="387"/>
      <point x="498" y="453"/>
      <point x="332" y="453" type="curve" smooth="yes"/>
      <point x="188" y="453" type="line"/>
      <point x="286" y="352" type="line"/>
      <point x="361" y="623" type="line"/>
      <point x="222" y="522" type="line"/>
      <point x="604" y="522" type="line"/>
      <point x="640" y="700" type="line"/>
      <point x="175" y="700" type="line"/>
      <point x="55" y="275" type="line"/>
      <point x="268" y="275" type="line" smooth="yes"/>
      <point x="333" y="275"/>
      <point x="355" y="258"/>
      <point x="355" y="229" type="curve" smooth="yes"/>
      <point x="355" y="191"/>
      <point x="319" y="170"/>
      <point x="254" y="170" type="curve" smooth="yes"/>
      <point x="196" y="170"/>
      <point x="130" y="186"/>
      <point x="75" y="221" type="curve"/>
      <point x="-32" y="57" type="line"/>
      <point x="42" y="7"/>
      <point x="138" y="-16"/>
    </contour>
  </outline>
</glyph>
<glyph name="eight" format="2">
  <advance width="678"/>
  <unicode hex="0038"/>
  <outline>
    <contour>
      <point x="317" y="-16" type="curve" smooth="yes"/>
      <point x="505" y="-16"/>
      <point x="639" y="75"/>
      <point x="639" y="225" type="curve" smooth="yes"/>
      <point x="639" y="347"/>
      <point x="510" y="422"/>
      <point x="333" y="422" type="curve" smooth="yes"/>
      <point x="151" y="422"/>
      <point x="12" y="339"/>
      <point x="12" y="189" type="curve" smooth="yes"/>
      <point x="12" y="66"/>
      <point x="135" y="-16"/>
    </contour>
    <contour>
      <point x="320" y="143" type="curve" smooth="yes"/>
      <point x="280" y="143"/>
      <point x="248" y="168"/>
      <point x="248" y="210" type="curve" smooth="yes"/>
      <point x="248" y="259"/>
      <point x="283" y="289"/>
      <point x="330" y="289" type="curve" smooth="yes"/>
      <point x="373" y="289"/>
      <point x="402" y="264"/>
      <point x="402" y="222" type="curve" smooth="yes"/>
      <point x="402" y="173"/>
      <point x="367" y="143"/>
    </contour>
    <contour>
      <point x="377" y="308" type="curve" smooth="yes"/>
      <point x="544" y="308"/>
      <point x="673" y="385"/>
      <point x="673" y="526" type="curve" smooth="yes"/>
      <point x="673" y="640"/>
      <point x="558" y="716"/>
      <point x="391" y="716" type="curve" smooth="yes"/>
      <point x="219" y="716"/>
      <point x="94" y="632"/>
      <point x="94" y="491" type="curve" smooth="yes"/>
      <point x="94" y="378"/>
      <point x="215" y="308"/>
    </contour>
    <contour>
      <point x="380" y="437" type="curve" smooth="yes"/>
      <point x="350" y="437"/>
      <point x="328" y="456"/>
      <point x="328" y="490" type="curve" smooth="yes"/>
      <point x="328" y="532"/>
      <point x="354" y="557"/>
      <point x="388" y="557" type="curve" smooth="yes"/>
      <point x="418" y="557"/>
      <point x="440" y="538"/>
      <point x="440" y="504" type="curve" smooth="yes"/>
      <point x="440" y="462"/>
      <point x="414" y="437"/>
    </contour>
  </outline>
</glyph>
<glyph name="greater" format="2">
  <advance width="619"/>
  <unicode hex="003E"/>
  <outline>
    <contour>
      <point x="15" y="76" type="line"/>
      <point x="562" y="261" type="line"/>
      <point x="598" y="439" type="line"/>
      <point x="125" y="624" type="line"/>
      <point x="93" y="463" type="line"/>
      <point x="508" y="310" type="line"/>
      <point x="528" y="408" type="line"/>
      <point x="51" y="255" type="line"/>
    </contour>
  </outline>
</glyph>
<glyph name="question" format="2">
  <advance width="606"/>
  <unicode hex="003F"/>
  <outline>
    <contour>
      <point x="206" y="268" type="curve"/>
      <point x="412" y="268" type="line"/>
      <point x="426" y="351"/>
      <point x="623" y="378"/>
      <point x="623" y="540" type="curve" smooth="yes"/>
      <point x="623" y="647"/>
      <point x="524" y="716"/>
      <point x="372" y="716" type="curve" smooth="yes"/>
      <point x="226" y="716"/>
      <point x="107" y="651"/>
      <point x="47" y="557" type="curve"/>
      <point x="199" y="463" type="line"/>
      <point x="227" y="507"/>
      <point x="272" y="533"/>
      <point x="318" y="533" type="curve" smooth="yes"/>
      <point x="358" y="533"/>
      <point x="378" y="517"/>
      <point x="378" y="492" type="curve" smooth="yes"/>
      <point x="378" y="417"/>
      <point x="231" y="395"/>
    </contour>
    <contour>
      <point x="270" y="-10" type="curve" smooth="yes"/>
      <point x="349" y="-10"/>
      <point x="409" y="47"/>
      <point x="409" y="120" type="curve" smooth="yes"/>
      <point x="409" y="181"/>
      <point x="358" y="228"/>
      <point x="284" y="228" type="curve" smooth="yes"/>
      <point x="205" y="228"/>
      <point x="145" y="175"/>
      <point x="145" y="100" type="curve" smooth="yes"/>
      <point x="145" y="39"/>
      <point x="196" y="-10"/>
    </contour>
  </outline>
</glyph>
<glyph name="W" format="2">
  <advance width="1206"/>
  <unicode hex="0057"/>
  <anchor x="548" y="0" name="bottom"/>
  <anchor x="688" y="700" name="top"/>
  <outline>
    <contour>
      <point x="179" y="0" type="line"/>
      <point x="432" y="0" type="line"/>
      <point x="683" y="484" type="line"/>
      <point x="611" y="484" type="line"/>
      <point x="664" y="0" type="line"/>
      <point x="917" y="0" type="line"/>
      <point x="1281" y="700" type="line"/>
      <point x="1049" y="700" type="line"/>
      <point x="742" y="109" type="line"/>
      <point x="857" y="109" type="line"/>
      <point x="798" y="700" type="line"/>
      <point x="581" y="700" type="line"/>
      <point x="273" y="109" type="line"/>
      <point x="395" y="109" type="line"/>
      <point x="328" y="700" type="line"/>
      <point x="95" y="700" type="line"/>
    </contour>
  </outline>
</glyph>
<glyph name="bracketleft" format="2">
  <advance width="410"/>
  <unicode hex="005B"/>
  <outline>
    <contour>
      <point x="-36" y="-194" type="line"/>
      <point x="306" y="-194" type="line"/>
      <point x="340" y="-24" type="line"/>
      <point x="224" y="-24" type="line"/>
      <point x="343" y="572" type="line"/>
      <point x="459" y="572" type="line"/>
      <point x="493" y="742" type="line"/>
      <point x="151" y="742" type="line"/>
    </contour>
  </outline>
</glyph>
<glyph name="b" format="2">
  <advance width="700"/>
  <unicode hex="0062"/>
  <outline>
    <contour>
      <point x="-5" y="0" type="line"/>
      <point x="210" y="0" type="line"/>
      <point x="232" y="110" type="line"/>
      <point x="266" y="274" type="line"/>
      <point x="315" y="472" type="line"/>
      <point x="369" y="742" type="line"/>
      <point x="143" y="742" type="line"/>
    </contour>
    <contour>
      <point x="389" y="-10" type="curve" smooth="yes"/>
      <point x="546" y="-10"/>
      <point x="680" y="124"/>
      <point x="680" y="304" type="curve" smooth="yes"/>
      <point x="680" y="467"/>
      <point x="564" y="557"/>
      <point x="455" y="557" type="curve" smooth="yes"/>
      <point x="286" y="557"/>
      <point x="200" y="375"/>
      <point x="200" y="188" type="curve" smooth="yes"/>
      <point x="200" y="40"/>
      <point x="280" y="-10"/>
    </contour>
    <contour>
      <point x="352" y="168" type="curve" smooth="yes"/>
      <point x="301" y="168"/>
      <point x="271" y="203"/>
      <point x="271" y="254" type="curve" smooth="yes"/>
      <point x="271" y="330"/>
      <point x="311" y="379"/>
      <point x="370" y="379" type="curve" smooth="yes"/>
      <point x="421" y="379"/>
      <point x="451" y="344"/>
      <point x="451" y="293" type="curve" smooth="yes"/>
      <point x="451" y="217"/>
      <point x="411" y="168"/>
    </contour>
  </outline>
</glyph>
<glyph name="l" format="2">
  <advance width="326"/>
  <unicode hex="006C"/>
  <anchor x="108" y="0" name="bottom"/>
  <anchor x="182" y="370" name="center"/>
  <anchor x="435" y="370" name="dot"/>
  <anchor x="256" y="742" name="top"/>
  <anchor x="439" y="742" name="topright"/>
  <outline>
    <contour>
      <point x="-5" y="0" type="line"/>
      <point x="221" y="0" type="line"/>
      <point x="369" y="742" type="line"/>
      <point x="143" y="742" type="line"/>
    </contour>
  </outline>
</glyph>
<glyph name="m" format="2">
  <advance width="1040"/>
  <unicode hex="006D"/>
  <anchor x="466" y="0" name="bottom"/>
  <outline>
    <contour>
      <point x="815" y="557" type="curve" smooth="yes"/>
      <point x="714" y="557"/>
      <point x="632" y="504"/>
      <point x="586" y="415" type="curve"/>
      <point x="645" y="396" type="line"/>
      <point x="634" y="505"/>
      <point x="552" y="557"/>
      <point x="462" y="557" type="curve" smooth="yes"/>
      <point x="387" y="557"/>
      <point x="310" y="519"/>
      <point x="261" y="436" type="curve"/>
      <point x="294" y="432" type="line"/>
      <point x="317" y="547" type="line"/>
      <point x="104" y="547" type="line"/>
      <point x="-5" y="0" type="line"/>
      <point x="221" y="0" type="line"/>
      <point x="274" y="267" type="line" smooth="yes"/>
      <point x="289" y="340"/>
      <point x="321" y="367"/>
      <point x="363" y="367" type="curve" smooth="yes"/>
      <point x="399" y="367"/>
      <point x="421" y="338"/>
      <point x="408" y="273" type="curve" smooth="yes"/>
      <point x="353" y="0" type="line"/>
      <point x="579" y="0" type="line"/>
      <point x="633" y="271" type="line" smooth="yes"/>
      <point x="647" y="341"/>
      <point x="680" y="367"/>
      <point x="721" y="367" type="curve" smooth="yes"/>
      <point x="757" y="367"/>
      <point x="779" y="338"/>
      <point x="766" y="273" type="curve" smooth="yes"/>
      <point x="711" y="0" type="line"/>
      <point x="937" y="0" type="line"/>
      <point x="997" y="302" type="line" smooth="yes"/>
      <point x="1031" y="472"/>
      <point x="940" y="557"/>
    </contour>
  </outline>
</glyph>
<glyph name="o" format="2">
  <advance width="676"/>
  <unicode hex="006F"/>
  <guideline x="608" y="274" angle="90"/>
  <anchor x="280" y="0" name="bottom"/>
  <anchor x="335" y="274" name="center"/>
  <anchor x="403" y="0" name="ogonek"/>
  <anchor x="389" y="547" name="top"/>
  <anchor x="485" y="547" name="topright"/>
  <outline>
    <contour>
      <point x="316" y="-10" type="curve" smooth="yes"/>
      <point x="515" y="-10"/>
      <point x="657" y="124"/>
      <point x="657" y="304" type="curve" smooth="yes"/>
      <point x="657" y="457"/>
      <point x="541" y="557"/>
      <point x="360" y="557" type="curve" smooth="yes"/>
      <point x="161" y="557"/>
      <point x="19" y="423"/>
      <point x="19" y="243" type="curve" smooth="yes"/>
      <point x="19" y="90"/>
      <point x="135" y="-10"/>
    </contour>
    <contour>
      <point x="329" y="166" type="curve" smooth="yes"/>
      <point x="278" y="166"/>
      <point x="248" y="202"/>
      <point x="248" y="254" type="curve" smooth="yes"/>
      <point x="248" y="331"/>
      <point x="288" y="381"/>
      <point x="347" y="381" type="curve" smooth="yes"/>
      <point x="399" y="381"/>
      <point x="428" y="340"/>
      <point x="428" y="293" type="curve" smooth="yes"/>
      <point x="428" y="216"/>
      <point x="388" y="166"/>
    </contour>
  </outline>
</glyph>
<glyph name="s" format="2">
  <advance width="565"/>
  <unicode hex="0073"/>
  <anchor x="221" y="0" name="bottom"/>
  <anchor x="330" y="547" name="top"/>
  <outline>
    <contour>
      <point x="223" y="-10" type="curve" smooth="yes"/>
      <point x="391" y="-10"/>
      <point x="529" y="58"/>
      <point x="529" y="195" type="curve" smooth="yes"/>
      <point x="529" y="378"/>
      <point x="254" y="326"/>
      <point x="254" y="376" type="curve" smooth="yes"/>
      <point x="254" y="389"/>
      <point x="271" y="403"/>
      <point x="323" y="403" type="curve" smooth="yes"/>
      <point x="369" y="403"/>
      <point x="429" y="395"/>
      <point x="486" y="362" type="curve"/>
      <point x="564" y="516" type="line"/>
      <point x="507" y="542"/>
      <point x="430" y="557"/>
      <point x="350" y="557" type="curve" smooth="yes"/>
      <point x="179" y="557"/>
      <point x="42" y="491"/>
      <point x="42" y="350" type="curve" smooth="yes"/>
      <point x="42" y="167"/>
      <point x="318" y="217"/>
      <point x="318" y="170" type="curve" smooth="yes"/>
      <point x="318" y="155"/>
      <point x="301" y="144"/>
      <point x="251" y="144" type="curve" smooth="yes"/>
      <point x="190" y="144"/>
      <point x="115" y="161"/>
      <point x="61" y="194" type="curve"/>
      <point x="-17" y="40" type="line"/>
      <point x="31" y="12"/>
      <point x="125" y="-10"/>
    </contour>
  </outline>
</glyph>
<glyph name="w" format="2">
  <advance width="983"/>
  <unicode hex="0077"/>
  <anchor x="443" y="0" name="bottom"/>
  <anchor x="546" y="547" name="top"/>
  <outline>
    <contour>
      <point x="135" y="0" type="line"/>
      <point x="357" y="0" type="line"/>
      <point x="539" y="352" type="line"/>
      <point x="472" y="352" type="line"/>
      <point x="528" y="0" type="line"/>
      <point x="751" y="0" type="line"/>
      <point x="1046" y="547" type="line"/>
      <point x="836" y="547" type="line"/>
      <point x="597" y="103" type="line"/>
      <point x="703" y="103" type="line"/>
      <point x="641" y="547" type="line"/>
      <point x="447" y="547" type="line"/>
      <point x="207" y="103" type="line"/>
      <point x="314" y="103" type="line"/>
      <point x="253" y="547" type="line"/>
      <point x="47" y="547" type="line"/>
    </contour>
  </outline>
</glyph>
<glyph name="z" format="2">
  <advance width="570"/>
  <unicode hex="007A"/>
  <anchor x="235" y="0" name="bottom"/>
  <anchor x="344" y="547" name="top"/>
  <outline>
    <contour>
      <point x="-25" y="0" type="line"/>
      <point x="497" y="0" type="line"/>
      <point x="530" y="165" type="line"/>
      <point x="191" y="165" type="line"/>
      <point x="225" y="93" type="line"/>
      <point x="569" y="417" type="line"/>
      <point x="595" y="547" type="line"/>
      <point x="92" y="547" type="line"/>
      <point x="59" y="382" type="line"/>
      <point x="379" y="382" type="line"/>
      <point x="346" y="454" type="line"/>
      <point x="1" y="130" type="line"/>
    </contour>
  </outline>
</glyph>
<glyph name="degree" format="2">
  <advance width="416"/>
  <unicode hex="00B0"/>
  <outline>
    <contour>
      <point x="259" y="349" type="curve" smooth="yes"/>
      <point x="362" y="349"/>
      <point x="447" y="428"/>
      <point x="447" y="530" type="curve" smooth="yes"/>
      <point x="447" y="632"/>
      <point x="362" y="711"/>
      <point x="259" y="711" type="curve" smooth="yes"/>
      <point x="156" y="711"/>
      <point x="71" y="632"/>
      <point x="71" y="530" type="curve" smooth="yes"/>
      <point x="71" y="428"/>
      <point x="156" y="349"/>
    </contour>
    <contour>
      <point x="259" y="453" type="curve" smooth="yes"/>
      <point x="215" y="453"/>
      <point x="183" y="487"/>
      <point x="183" y="530" type="curve" smooth="yes"/>
      <point x="183" y="573"/>
      <point x="215" y="607"/>
      <point x="259" y="607" type="curve" smooth="yes"/>
      <point x="303" y="607"/>
      <point x="335" y="573"/>
      <point x="335" y="530" type="curve" smooth="yes"/>
      <point x="335" y="487"/>
      <point x="303" y="453"/>
    </contour>
  </outline>
</glyph>
<glyph name="plusminus" format="2">
  <advance width="619"/>
  <unicode hex="00B1"/>
  <outline>
    <contour>
      <point x="0" y="0" type="line"/>
      <point x="510" y="0" type="line"/>
      <point x="544" y="170" type="line"/>
      <point x="34" y="170" type="line"/>
    </contour>
    <contour>
      <point x="212" y="235" type="line"/>
      <point x="392" y="235" type="line"/>
      <point x="485" y="700" type="line"/>
      <point x="305" y="700" type="line"/>
    </contour>
    <contour>
      <point x="77" y="387" type="line"/>
      <point x="587" y="387" type="line"/>
      <point x="620" y="548" type="line"/>
      <point x="110" y="548" type="line"/>
    </contour>
  </outline>
</glyph>
<glyph name="paragraph" format="2">
  <advance width="730"/>
  <unicode hex="00B6"/>
  <outline>
    <contour>
      <point x="154" y="-100" type="line"/>
      <point x="336" y="-100" type="line"/>
      <point x="473" y="587" type="line"/>
      <point x="553" y="587" type="line"/>
      <point x="416" y="-100" type="line"/>
      <point x="598" y="-100" type="line"/>
      <point x="766" y="742" type="line"/>
      <point x="371" y="742" type="line" smooth="yes"/>
      <point x="188" y="742"/>
      <point x="58" y="673"/>
      <point x="58" y="503" type="curve" smooth="yes"/>
      <point x="58" y="398"/>
      <point x="141" y="339"/>
      <point x="241" y="333" type="curve"/>
    </contour>
  </outline>
</glyph>
<glyph name="questiondown" format="2">
  <advance width="606"/>
  <unicode hex="00BF"/>
  <outline>
    <contour>
      <point x="234" y="-169" type="curve" smooth="yes"/>
      <point x="380" y="-169"/>
      <point x="499" y="-104"/>
      <point x="559" y="-10" type="curve"/>
      <point x="407" y="84" type="line"/>
      <point x="379" y="40"/>
      <point x="334" y="14"/>
      <point x="288" y="14" type="curve" smooth="yes"/>
      <point x="248" y="14"/>
      <point x="228" y="30"/>
      <point x="228" y="55" type="curve" smooth="yes"/>
      <point x="228" y="130"/>
      <point x="375" y="152"/>
      <point x="400" y="279" type="curve"/>
      <point x="194" y="279" type="line"/>
      <point x="180" y="196"/>
      <point x="-17" y="169"/>
      <point x="-17" y="7" type="curve" smooth="yes"/>
      <point x="-17" y="-100"/>
      <point x="82" y="-169"/>
    </contour>
    <contour>
      <point x="322" y="319" type="curve" smooth="yes"/>
      <point x="401" y="319"/>
      <point x="461" y="372"/>
      <point x="461" y="447" type="curve" smooth="yes"/>
      <point x="461" y="508"/>
      <point x="410" y="557"/>
      <point x="336" y="557" type="curve" smooth="yes"/>
      <point x="257" y="557"/>
      <point x="197" y="500"/>
      <point x="197" y="427" type="curve" smooth="yes"/>
      <point x="197" y="366"/>
      <point x="248" y="319"/>
    </contour>
  </outline>
</glyph>
<glyph name="Thorn" format="2">
  <advance width="743"/>
  <unicode hex="00DE"/>
  <anchor x="317" y="0" name="bottom"/>
  <anchor x="457" y="700" name="top"/>
  <outline>
    <contour>
      <point x="211" y="105" type="line"/>
      <point x="379" y="105" type="line" smooth="yes"/>
      <point x="594" y="105"/>
      <point x="733" y="224"/>
      <point x="733" y="401" type="curve" smooth="yes"/>
      <point x="733" y="547"/>
      <point x="627" y="633"/>
      <point x="442" y="633" type="curve" smooth="yes"/>
      <point x="316" y="633" type="line"/>
      <point x="280" y="451" type="line"/>
      <point x="406" y="451" type="line" smooth="yes"/>
      <point x="460" y="451"/>
      <point x="494" y="430"/>
      <point x="494" y="380" type="curve" smooth="yes"/>
      <point x="494" y="321"/>
      <point x="456" y="287"/>
      <point x="391" y="287" type="curve" smooth="yes"/>
      <point x="247" y="287" type="line"/>
    </contour>
    <contour>
      <point x="2" y="0" type="line"/>
      <point x="238" y="0" type="line"/>
      <point x="378" y="700" type="line"/>
      <point x="142" y="700" type="line"/>
    </contour>
  </outline>
</glyph>
<glyph name="eth" format="2">
  <advance width="676"/>
  <unicode hex="00F0"/>
  <outline>
    <contour>
      <point x="272" y="-16" type="curve" smooth="yes"/>
      <point x="521" y="-16"/>
      <point x="678" y="189"/>
      <point x="678" y="437" type="curve" smooth="yes"/>
      <point x="678" y="637"/>
      <point x="540" y="758"/>
      <point x="329" y="758" type="curve" smooth="yes"/>
      <point x="272" y="758"/>
      <point x="223" y="752"/>
      <point x="169" y="741" type="curve"/>
      <point x="157" y="578" type="line"/>
      <point x="200" y="591"/>
      <point x="246" y="596"/>
      <point x="282" y="596" type="curve" smooth="yes"/>
      <point x="406" y="596"/>
      <point x="463" y="518"/>
      <point x="438" y="387" type="curve" smooth="yes"/>
      <point x="430" y="347"/>
      <point x="427" y="328"/>
      <point x="423" y="308" type="curve"/>
      <point x="484" y="335" type="line"/>
      <point x="457" y="414"/>
      <point x="394" y="453"/>
      <point x="296" y="453" type="curve" smooth="yes"/>
      <point x="132" y="453"/>
      <point x="10" y="347"/>
      <point x="10" y="198" type="curve" smooth="yes"/>
      <point x="10" y="74"/>
      <point x="109" y="-16"/>
    </contour>
    <contour>
      <point x="310" y="147" type="curve" smooth="yes"/>
      <point x="267" y="147"/>
      <point x="239" y="173"/>
      <point x="239" y="213" type="curve" smooth="yes"/>
      <point x="239" y="258"/>
      <point x="273" y="290"/>
      <point x="323" y="290" type="curve" smooth="yes"/>
      <point x="366" y="290"/>
      <point x="394" y="265"/>
      <point x="394" y="224" type="curve" smooth="yes"/>
      <point x="394" y="178"/>
      <point x="360" y="147"/>
    </contour>
    <contour>
      <point x="192" y="453" type="line"/>
      <point x="707" y="629" type="line"/>
      <point x="678" y="718" type="line"/>
      <point x="163" y="542" type="line"/>
    </contour>
  </outline>
</glyph>
<glyph name="kgreenlandic" format="2">
  <advance width="690"/>
  <unicode hex="0138"/>
  <anchor x="268" y="0" name="bottom"/>
  <anchor x="377" y="547" name="top"/>
  <outline>
    <contour>
      <point x="210" y="75" type="line"/>
      <point x="321" y="179" type="line"/>
      <point x="452" y="275" type="line"/>
      <point x="754" y="547" type="line"/>
      <point x="476" y="547" type="line"/>
      <point x="260" y="357" type="line"/>
    </contour>
    <contour>
      <point x="-5" y="0" type="line"/>
      <point x="221" y="0" type="line"/>
      <point x="330" y="547" type="line"/>
      <point x="104" y="547" type="line"/>
    </contour>
    <contour>
      <point x="394" y="0" type="line"/>
      <point x="659" y="0" type="line"/>
      <point x="443" y="361" type="line"/>
      <point x="282" y="190" type="line"/>
    </contour>
  </outline>
</glyph>
<glyph name="longs" format="2">
  <advance width="366"/>
  <unicode hex="017F"/>
  <outline>
    <contour>
      <point x="34" y="0" type="line"/>
      <point x="260" y="0" type="line"/>
      <point x="361" y="518" type="line" smooth="yes"/>
      <point x="370" y="561"/>
      <point x="392" y="581"/>
      <point x="423" y="581" type="curve" smooth="yes"/>
      <point x="437" y="581"/>
      <point x="454" y="577"/>
      <point x="471" y="568" type="curve"/>
      <point x="557" y="725" type="line"/>
      <point x="508" y="743"/>
      <point x="460" y="752"/>
      <point x="415" y="752" type="curve" smooth="yes"/>
      <point x="276" y="752"/>
      <point x="168" y="673"/>
      <point x="140" y="530" type="curve" smooth="yes"/>
    </contour>
    <contour>
      <point x="29" y="352" type="line"/>
      <point x="257" y="352" type="line"/>
      <point x="290" y="517" type="line"/>
      <point x="62" y="517" type="line"/>
    </contour>
  </outline>
</glyph>
<glyph name="Ohorn" format="2">
  <advance width="848"/>
  <unicode hex="01A0"/>
  <anchor x="369" y="0" name="bottom"/>
  <anchor x="509" y="700" name="top"/>
  <outline>
    <contour>
      <point x="396" y="-16" type="curve" smooth="yes"/>
      <point x="653" y="-16"/>
      <point x="837" y="156"/>
      <point x="837" y="403" type="curve" smooth="yes"/>
      <point x="837" y="488"/>
      <point x="808" y="562"/>
      <point x="755" y="615" type="curve"/>
      <point x="633" y="564" type="line"/>
      <point x="664" y="560"/>
      <point x="684" y="557"/>
      <point x="705" y="557" type="curve" smooth="yes"/>
      <point x="827" y="557"/>
      <point x="915" y="626"/>
      <point x="915" y="749" type="curve" smooth="yes"/>
      <point x="915" y="797"/>
      <point x="901" y="834"/>
      <point x="878" y="863" type="curve"/>
      <point x="750" y="818" type="line"/>
      <point x="762" y="804"/>
      <point x="770" y="783"/>
      <point x="770" y="761" type="curve" smooth="yes"/>
      <point x="770" y="724"/>
      <point x="743" y="695"/>
      <point x="695" y="695" type="curve" smooth="yes"/>
      <point x="642" y="695"/>
      <point x="592" y="716"/>
      <point x="482" y="716" type="curve" smooth="yes"/>
      <point x="225" y="716"/>
      <point x="41" y="544"/>
      <point x="41" y="297" type="curve" smooth="yes"/>
      <point x="41" y="113"/>
      <point x="178" y="-16"/>
    </contour>
    <contour>
      <point x="416" y="175" type="curve" smooth="yes"/>
      <point x="330" y="175"/>
      <point x="279" y="230"/>
      <point x="279" y="311" type="curve" smooth="yes"/>
      <point x="279" y="426"/>
      <point x="346" y="525"/>
      <point x="462" y="525" type="curve" smooth="yes"/>
      <point x="548" y="525"/>
      <point x="599" y="470"/>
      <point x="599" y="389" type="curve" smooth="yes"/>
      <point x="599" y="274"/>
      <point x="532" y="175"/>
    </contour>
  </outline>
</glyph>
<glyph name="ohorn" format="2">
  <advance width="676"/>
  <unicode hex="01A1"/>
  <anchor x="280" y="0" name="bottom"/>
  <anchor x="389" y="547" name="top"/>
  <outline>
    <contour>
      <point x="315" y="-10" type="curve" smooth="yes"/>
      <point x="514" y="-10"/>
      <point x="655" y="124"/>
      <point x="655" y="304" type="curve" smooth="yes"/>
      <point x="655" y="373"/>
      <point x="632" y="431"/>
      <point x="584" y="477" type="curve"/>
      <point x="452" y="414" type="line"/>
      <point x="470" y="411"/>
      <point x="486" y="409"/>
      <point x="514" y="409" type="curve" smooth="yes"/>
      <point x="636" y="409"/>
      <point x="724" y="476"/>
      <point x="724" y="599" type="curve" smooth="yes"/>
      <point x="724" y="644"/>
      <point x="710" y="681"/>
      <point x="687" y="710" type="curve"/>
      <point x="559" y="665" type="line"/>
      <point x="571" y="651"/>
      <point x="579" y="630"/>
      <point x="579" y="608" type="curve" smooth="yes"/>
      <point x="579" y="571"/>
      <point x="542" y="547"/>
      <point x="519" y="547" type="curve" smooth="yes"/>
      <point x="471" y="547"/>
      <point x="432" y="557"/>
      <point x="360" y="557" type="curve" smooth="yes"/>
      <point x="160" y="557"/>
      <point x="19" y="423"/>
      <point x="19" y="243" type="curve" smooth="yes"/>
      <point x="19" y="90"/>
      <point x="135" y="-10"/>
    </contour>
    <contour>
      <point x="329" y="168" type="curve" smooth="yes"/>
      <point x="278" y="168"/>
      <point x="248" y="203"/>
      <point x="248" y="254" type="curve" smooth="yes"/>
      <point x="248" y="330"/>
      <point x="288" y="379"/>
      <point x="347" y="379" type="curve" smooth="yes"/>
      <point x="398" y="379"/>
      <point x="428" y="344"/>
      <point x="428" y="293" type="curve" smooth="yes"/>
      <point x="428" y="217"/>
      <point x="388" y="168"/>
    </contour>
  </outline>
</glyph>
<glyph name="gstroke" format="2">
  <advance width="733"/>
  <unicode hex="01E5"/>
  <outline>
    <contour>
      <point x="261" y="-204" type="curve" smooth="yes"/>
      <point x="458" y="-204"/>
      <point x="591" y="-113"/>
      <point x="635" y="110" type="curve" smooth="yes"/>
      <point x="722" y="547" type="line"/>
      <point x="507" y="547" type="line"/>
      <point x="491" y="464" type="line"/>
      <point x="456" y="294" type="line"/>
      <point x="415" y="138" type="line"/>
      <point x="401" y="68" type="line" smooth="yes"/>
      <point x="388" y="3"/>
      <point x="349" y="-45"/>
      <point x="261" y="-45" type="curve" smooth="yes"/>
      <point x="195" y="-45"/>
      <point x="129" y="-24"/>
      <point x="82" y="9" type="curve"/>
      <point x="-10" y="-136" type="line"/>
      <point x="62" y="-179"/>
      <point x="150" y="-204"/>
    </contour>
    <contour>
      <point x="214" y="-11" type="line"/>
      <point x="676" y="-10" type="line"/>
      <point x="692" y="70" type="line"/>
      <point x="230" y="69" type="line"/>
    </contour>
    <contour>
      <point x="266" y="92" type="curve" smooth="yes"/>
      <point x="421" y="92"/>
      <point x="513" y="225"/>
      <point x="513" y="383" type="curve" smooth="yes"/>
      <point x="513" y="511"/>
      <point x="417" y="556"/>
      <point x="311" y="556" type="curve" smooth="yes"/>
      <point x="147" y="556"/>
      <point x="30" y="447"/>
      <point x="30" y="300" type="curve" smooth="yes"/>
      <point x="30" y="169"/>
      <point x="145" y="92"/>
    </contour>
    <contour>
      <point x="338" y="243" type="curve" smooth="yes"/>
      <point x="288" y="243"/>
      <point x="258" y="272"/>
      <point x="258" y="308" type="curve" smooth="yes"/>
      <point x="258" y="365"/>
      <point x="298" y="405"/>
      <point x="356" y="405" type="curve" smooth="yes"/>
      <point x="406" y="405"/>
      <point x="435" y="376"/>
      <point x="435" y="340" type="curve" smooth="yes"/>
      <point x="435" y="283"/>
      <point x="396" y="243"/>
    </contour>
  </outline>
</glyph>
<glyph name="verticallinemod" format="2">
  <advance width="202"/>
  <unicode hex="02C8"/>
  <outline>
    <contour>
      <point x="74" y="497" type="line"/>
      <point x="218" y="497" type="line"/>
      <point x="259" y="701" type="line"/>
      <point x="115" y="701" type="line"/>
    </contour>
  </outline>
</glyph>
<glyph name="gravecomb" format="2">
  <unicode hex="0300"/>
  <anchor x="355" y="547" name="_top"/>
  <anchor x="398" y="760" name="top"/>
  <outline>
    <contour>
      <point x="322" y="607" type="line"/>
      <point x="472" y="607" type="line"/>
      <point x="372" y="767" type="line"/>
      <point x="157" y="767" type="line"/>
    </contour>
  </outline>
</glyph>
<glyph name="acutecomb" format="2">
  <unicode hex="0301"/>
  <anchor x="355" y="547" name="_top"/>
  <anchor x="398" y="760" name="top"/>
  <outline>
    <contour>
      <point x="259" y="607" type="line"/>
      <point x="415" y="607" type="line"/>
      <point x="630" y="767" type="line"/>
      <point x="409" y="767" type="line"/>
    </contour>
  </outline>
</glyph>
<glyph name="tildecomb" format="2">
  <unicode hex="0303"/>
  <anchor x="355" y="547" name="_top"/>
  <anchor x="396" y="750" name="top"/>
  <outline>
    <contour>
      <point x="456" y="597" type="curve" smooth="yes"/>
      <point x="539" y="597"/>
      <point x="596" y="657"/>
      <point x="614" y="767" type="curve"/>
      <point x="507" y="767" type="line"/>
      <point x="501" y="739"/>
      <point x="483" y="721"/>
      <point x="457" y="721" type="curve" smooth="yes"/>
      <point x="419" y="721"/>
      <point x="386" y="780"/>
      <point x="310" y="780" type="curve" smooth="yes"/>
      <point x="227" y="780"/>
      <point x="171" y="720"/>
      <point x="152" y="607" type="curve"/>
      <point x="259" y="607" type="line"/>
      <point x="266" y="637"/>
      <point x="284" y="656"/>
      <point x="310" y="656" type="curve" smooth="yes"/>
      <point x="348" y="656"/>
      <point x="380" y="597"/>
    </contour>
  </outline>
</glyph>
<glyph name="dotaccentcomb" format="2">
  <unicode hex="0307"/>
  <anchor x="388" y="709" name="_center"/>
  <anchor x="355" y="547" name="_top"/>
  <anchor x="406" y="800" name="top"/>
  <outline>
    <contour>
      <point x="379" y="597" type="curve" smooth="yes"/>
      <point x="448" y="597"/>
      <point x="503" y="648"/>
      <point x="503" y="725" type="curve" smooth="yes"/>
      <point x="503" y="783"/>
      <point x="461" y="825"/>
      <point x="397" y="825" type="curve" smooth="yes"/>
      <point x="328" y="825"/>
      <point x="273" y="774"/>
      <point x="273" y="697" type="curve" smooth="yes"/>
      <point x="273" y="639"/>
      <point x="315" y="597"/>
    </contour>
  </outline>
</glyph>
<glyph name="hookabovecomb" format="2">
  <unicode hex="0309"/>
  <anchor x="355" y="547" name="_top"/>
  <anchor x="412" y="830" name="top"/>
  <outline>
    <contour>
      <point x="415" y="597" type="line"/>
      <point x="492" y="630"/>
      <point x="540" y="679"/>
      <point x="540" y="751" type="curve" smooth="yes"/>
      <point x="540" y="817"/>
      <point x="491" y="858"/>
      <point x="413" y="858" type="curve" smooth="yes"/>
      <point x="365" y="858"/>
      <point x="318" y="845"/>
      <point x="280" y="818" type="curve"/>
      <point x="315" y="734" type="line"/>
      <point x="336" y="748"/>
      <point x="356" y="754"/>
      <point x="375" y="754" type="curve" smooth="yes"/>
      <point x="398" y="754"/>
      <point x="411" y="742"/>
      <point x="411" y="722" type="curve" smooth="yes"/>
      <point x="411" y="702"/>
      <point x="402" y="682"/>
      <point x="356" y="662" type="curve"/>
    </contour>
  </outline>
</glyph>
<glyph name="hungarumlautcomb" format="2">
  <unicode hex="030B"/>
  <anchor x="355" y="547" name="_top"/>
  <anchor x="398" y="760" name="top"/>
  <outline>
    <contour>
      <point x="407" y="607" type="line"/>
      <point x="561" y="607" type="line"/>
      <point x="676" y="767" type="line"/>
      <point x="477" y="767" type="line"/>
    </contour>
    <contour>
      <point x="173" y="607" type="line"/>
      <point x="327" y="607" type="line"/>
      <point x="442" y="767" type="line"/>
      <point x="243" y="767" type="line"/>
    </contour>
  </outline>
</glyph>
<glyph name="breveinvertedcomb" format="2">
  <unicode hex="0311"/>
  <guideline x="966" y="671" angle="90"/>
  <anchor x="355" y="547" name="_top"/>
  <anchor x="396" y="750" name="top"/>
  <outline>
    <contour>
      <point x="158" y="607" type="curve"/>
      <point x="297" y="607" type="line"/>
      <point x="306" y="644"/>
      <point x="334" y="668"/>
      <point x="377" y="668" type="curve" smooth="yes"/>
      <point x="419" y="668"/>
      <point x="446" y="644"/>
      <point x="445" y="607" type="curve"/>
      <point x="576" y="607" type="line"/>
      <point x="587" y="712"/>
      <point x="506" y="777"/>
      <point x="391" y="777" type="curve" smooth="yes"/>
      <point x="267" y="777"/>
      <point x="179" y="712"/>
    </contour>
  </outline>
</glyph>
<glyph name="horncomb" format="2">
  <unicode hex="031B"/>
  <anchor x="355" y="547" name="_topright"/>
  <outline>
    <contour>
      <point x="325" y="409" type="line"/>
      <point x="355" y="409" type="line" smooth="yes"/>
      <point x="477" y="409"/>
      <point x="565" y="476"/>
      <point x="565" y="599" type="curve" smooth="yes"/>
      <point x="565" y="644"/>
      <point x="551" y="681"/>
      <point x="528" y="710" type="curve"/>
      <point x="400" y="665" type="line"/>
      <point x="412" y="651"/>
      <point x="420" y="630"/>
      <point x="420" y="608" type="curve" smooth="yes"/>
      <point x="420" y="571"/>
      <point x="393" y="547"/>
      <point x="365" y="547" type="curve" smooth="yes"/>
      <point x="325" y="547" type="line"/>
    </contour>
  </outline>
</glyph>
<glyph name="dotbelowcomb" format="2">
  <unicode hex="0323"/>
  <anchor x="246" y="0" name="_bottom"/>
  <anchor x="208" y="-191" name="bottom"/>
  <outline>
    <contour>
      <point x="211" y="-226" type="curve" smooth="yes"/>
      <point x="265" y="-226"/>
      <point x="309" y="-190"/>
      <point x="309" y="-128" type="curve" smooth="yes"/>
      <point x="309" y="-83"/>
      <point x="272" y="-50"/>
      <point x="225" y="-50" type="curve" smooth="yes"/>
      <point x="174" y="-50"/>
      <point x="127" y="-90"/>
      <point x="127" y="-146" type="curve" smooth="yes"/>
      <point x="127" y="-193"/>
      <point x="161" y="-226"/>
    </contour>
  </outline>
</glyph>
<glyph name="commaaccentcomb" format="2">
  <unicode hex="0326"/>
  <anchor x="246" y="0" name="_bottom"/>
  <anchor x="208" y="-191" name="bottom"/>
  <outline>
    <contour>
      <point x="119" y="-270" type="line"/>
      <point x="218" y="-270" type="line"/>
      <point x="270" y="-205" type="line" smooth="yes"/>
      <point x="304" y="-162"/>
      <point x="312" y="-142"/>
      <point x="312" y="-116" type="curve" smooth="yes"/>
      <point x="312" y="-79"/>
      <point x="285" y="-50"/>
      <point x="227" y="-50" type="curve" smooth="yes"/>
      <point x="162" y="-50"/>
      <point x="129" y="-87"/>
      <point x="129" y="-137" type="curve" smooth="yes"/>
      <point x="129" y="-173"/>
      <point x="157" y="-198"/>
      <point x="211" y="-198" type="curve"/>
      <point x="196" y="-125" type="line"/>
    </contour>
  </outline>
</glyph>
<glyph name="cedillacomb" format="2">
  <unicode hex="0327"/>
  <anchor x="246" y="0" name="_bottom"/>
  <outline>
    <contour>
      <point x="167" y="-240" type="curve" smooth="yes"/>
      <point x="267" y="-240"/>
      <point x="335" y="-201"/>
      <point x="348" y="-137" type="curve" smooth="yes"/>
      <point x="356" y="-99"/>
      <point x="335" y="-61"/>
      <point x="280" y="-52" type="curve"/>
      <point x="306" y="10" type="line"/>
      <point x="190" y="10" type="line"/>
      <point x="140" y="-104" type="line"/>
      <point x="184" y="-104" type="line" smooth="yes"/>
      <point x="210" y="-104"/>
      <point x="221" y="-113"/>
      <point x="218" y="-126" type="curve" smooth="yes"/>
      <point x="215" y="-139"/>
      <point x="201" y="-148"/>
      <point x="171" y="-148" type="curve" smooth="yes"/>
      <point x="147" y="-148"/>
      <point x="122" y="-142"/>
      <point x="108" y="-136" type="curve"/>
      <point x="63" y="-219" type="line"/>
      <point x="87" y="-231"/>
      <point x="127" y="-240"/>
    </contour>
  </outline>
</glyph>
<glyph name="strokeshortcomb" format="2">
  <unicode hex="0335"/>
  <anchor x="333" y="433" name="_center"/>
  <outline>
    <contour>
      <point x="108" y="378" type="line"/>
      <point x="536" y="378" type="line"/>
      <point x="558" y="488" type="line"/>
      <point x="130" y="488" type="line"/>
    </contour>
  </outline>
</glyph>
<glyph name="slashlongcomb" format="2">
  <unicode hex="0338"/>
  <anchor x="328" y="274" name="_center"/>
  <outline>
    <contour>
      <point x="-9" y="-70" type="line"/>
      <point x="92" y="-70" type="line"/>
      <point x="663" y="610" type="line"/>
      <point x="562" y="610" type="line"/>
    </contour>
  </outline>
</glyph>
<glyph name="Delta" format="2">
  <advance width="806"/>
  <unicode hex="0394"/>
  <outline>
    <contour>
      <point x="604" y="700" type="line"/>
      <point x="372" y="700" type="line"/>
      <point x="-74" y="0" type="line"/>
      <point x="770" y="0" type="line"/>
    </contour>
    <contour>
      <point x="205" y="76" type="line"/>
      <point x="518" y="598" type="line"/>
      <point x="426" y="598" type="line"/>
      <point x="538" y="76" type="line"/>
      <point x="599" y="183" type="line"/>
      <point x="167" y="183" type="line"/>
    </contour>
  </outline>
</glyph>
<glyph name="Nje-cy" format="2">
  <advance width="1163"/>
  <unicode hex="040A"/>
  <outline>
    <contour>
      <point x="7" y="0" type="line"/>
      <point x="239" y="0" type="line"/>
      <point x="293" y="272" type="line"/>
      <point x="506" y="272" type="line"/>
      <point x="452" y="0" type="line"/>
      <point x="684" y="0" type="line"/>
      <point x="824" y="700" type="line"/>
      <point x="592" y="700" type="line"/>
      <point x="543" y="455" type="line"/>
      <point x="330" y="455" type="line"/>
      <point x="379" y="700" type="line"/>
      <point x="147" y="700" type="line"/>
    </contour>
    <contour>
      <point x="707" y="114" type="line"/>
      <point x="754" y="349" type="line"/>
      <point x="694" y="298" type="line"/>
      <point x="837" y="298" type="line" smooth="yes"/>
      <point x="876" y="298"/>
      <point x="898" y="280"/>
      <point x="898" y="246" type="curve" smooth="yes"/>
      <point x="898" y="195"/>
      <point x="863" y="165"/>
      <point x="810" y="165" type="curve" smooth="yes"/>
      <point x="667" y="165" type="line"/>
    </contour>
    <contour>
      <point x="452" y="0" type="line"/>
      <point x="807" y="0" type="line" smooth="yes"/>
      <point x="1008" y="0"/>
      <point x="1141" y="109"/>
      <point x="1141" y="284" type="curve" smooth="yes"/>
      <point x="1141" y="397"/>
      <point x="1062" y="463"/>
      <point x="920" y="463" type="curve" smooth="yes"/>
      <point x="727" y="463" type="line"/>
      <point x="765" y="403" type="line"/>
      <point x="824" y="700" type="line"/>
      <point x="592" y="700" type="line"/>
    </contour>
  </outline>
</glyph>
<glyph name="Tshe-cy" format="2">
  <advance width="873"/>
  <unicode hex="040B"/>
  <outline>
    <contour>
      <point x="166" y="0" type="line"/>
      <point x="398" y="0" type="line"/>
      <point x="509" y="568" type="line"/>
      <point x="448" y="517" type="line"/>
      <point x="732" y="517" type="line"/>
      <point x="768" y="700" type="line"/>
      <point x="101" y="700" type="line"/>
      <point x="65" y="517" type="line"/>
      <point x="318" y="517" type="line"/>
      <point x="277" y="568" type="line"/>
    </contour>
    <contour>
      <point x="446" y="405" type="curve"/>
      <point x="426" y="208" type="line"/>
      <point x="464" y="227"/>
      <point x="502" y="241"/>
      <point x="536" y="241" type="curve" smooth="yes"/>
      <point x="595" y="241"/>
      <point x="602" y="200"/>
      <point x="590" y="139" type="curve" smooth="yes"/>
      <point x="562" y="0" type="line"/>
      <point x="794" y="0" type="line"/>
      <point x="824" y="150" type="line" smooth="yes"/>
      <point x="860" y="327"/>
      <point x="781" y="430"/>
      <point x="608" y="430" type="curve" smooth="yes"/>
      <point x="560" y="430"/>
      <point x="505" y="422"/>
    </contour>
  </outline>
</glyph>
<glyph name="Be-cy" format="2">
  <advance width="749"/>
  <unicode hex="0411"/>
  <guideline x="794" y="503" angle="90"/>
  <guideline x="558" y="356" angle="0"/>
  <outline>
    <contour>
      <point x="7" y="0" type="line"/>
      <point x="376" y="0" type="line" smooth="yes"/>
      <point x="589" y="0"/>
      <point x="722" y="96"/>
      <point x="722" y="250" type="curve" smooth="yes"/>
      <point x="722" y="372"/>
      <point x="639" y="441"/>
      <point x="494" y="441" type="curve" smooth="yes"/>
      <point x="327" y="441" type="line"/>
      <point x="343" y="522" type="line"/>
      <point x="718" y="522" type="line"/>
      <point x="754" y="700" type="line"/>
      <point x="147" y="700" type="line"/>
    </contour>
    <contour>
      <point x="272" y="165" type="line"/>
      <point x="294" y="277" type="line"/>
      <point x="415" y="277" type="line" smooth="yes"/>
      <point x="459" y="277"/>
      <point x="480" y="262"/>
      <point x="480" y="231" type="curve" smooth="yes"/>
      <point x="480" y="191"/>
      <point x="446" y="165"/>
      <point x="393" y="165" type="curve" smooth="yes"/>
    </contour>
  </outline>
</glyph>
<glyph name="Ze-cy" format="2">
  <advance width="673"/>
  <unicode hex="0417"/>
  <anchor x="281" y="0" name="bottom"/>
  <anchor x="412" y="700" name="top"/>
  <outline>
    <contour>
      <point x="257" y="-16" type="curve" smooth="yes"/>
      <point x="461" y="-16"/>
      <point x="637" y="75"/>
      <point x="637" y="216" type="curve" smooth="yes"/>
      <point x="637" y="314"/>
      <point x="556" y="384"/>
      <point x="442" y="384" type="curve"/>
      <point x="428" y="337" type="line"/>
      <point x="560" y="337"/>
      <point x="671" y="426"/>
      <point x="671" y="532" type="curve" smooth="yes"/>
      <point x="671" y="648"/>
      <point x="536" y="719"/>
      <point x="367" y="719" type="curve" smooth="yes"/>
      <point x="285" y="719"/>
      <point x="195" y="702"/>
      <point x="108" y="666" type="curve"/>
      <point x="142" y="491" type="line"/>
      <point x="208" y="521"/>
      <point x="277" y="536"/>
      <point x="331" y="536" type="curve" smooth="yes"/>
      <point x="387" y="536"/>
      <point x="426" y="520"/>
      <point x="426" y="488" type="curve" smooth="yes"/>
      <point x="426" y="460"/>
      <point x="397" y="441"/>
      <point x="355" y="441" type="curve" smooth="yes"/>
      <point x="186" y="441" type="line"/>
      <point x="152" y="271" type="line"/>
      <point x="341" y="271" type="line" smooth="yes"/>
      <point x="383" y="271"/>
      <point x="403" y="259"/>
      <point x="403" y="234" type="curve" smooth="yes"/>
      <point x="403" y="194"/>
      <point x="340" y="170"/>
      <point x="260" y="170" type="curve" smooth="yes"/>
      <point x="199" y="170"/>
      <point x="129" y="184"/>
      <point x="68" y="212" type="curve"/>
      <point x="-34" y="49" type="line"/>
      <point x="59" y="4"/>
      <point x="161" y="-16"/>
    </contour>
  </outline>
</glyph>
<glyph name="Ka-cy" format="2">
  <advance width="773"/>
  <unicode hex="041A"/>
  <anchor x="456" y="0" name="bottomleft"/>
  <anchor x="706" y="0" name="bottomright"/>
  <anchor x="485" y="700" name="top"/>
  <outline>
    <contour>
      <point x="7" y="0" type="line"/>
      <point x="243" y="0" type="line"/>
      <point x="383" y="700" type="line"/>
      <point x="147" y="700" type="line"/>
    </contour>
    <contour>
      <point x="226" y="253" type="line"/>
      <point x="491" y="253" type="line"/>
      <point x="528" y="439" type="line"/>
      <point x="263" y="439" type="line"/>
    </contour>
    <contour>
      <point x="456" y="0" type="line"/>
      <point x="706" y="0" type="line"/>
      <point x="540" y="438" type="line"/>
      <point x="346" y="328" type="line"/>
    </contour>
    <contour>
      <point x="548" y="325" type="line"/>
      <point x="853" y="700" type="line"/>
      <point x="591" y="700" type="line"/>
      <point x="320" y="347" type="line"/>
    </contour>
  </outline>
</glyph>
<glyph name="Em-cy" format="2">
  <advance width="963"/>
  <unicode hex="041C"/>
  <anchor x="426" y="0" name="bottom"/>
  <anchor x="632" y="0" name="bottomleft"/>
  <anchor x="566" y="700" name="top"/>
  <outline>
    <contour>
      <point x="7" y="0" type="line"/>
      <point x="222" y="0" type="line"/>
      <point x="297" y="376" type="line"/>
      <point x="257" y="379" type="line"/>
      <point x="393" y="63" type="line"/>
      <point x="497" y="63" type="line"/>
      <point x="739" y="378" type="line"/>
      <point x="705" y="376" type="line"/>
      <point x="632" y="0" type="line"/>
      <point x="847" y="0" type="line"/>
      <point x="985" y="700" type="line"/>
      <point x="784" y="700" type="line"/>
      <point x="424" y="243" type="line"/>
      <point x="526" y="243" type="line"/>
      <point x="339" y="700" type="line"/>
      <point x="147" y="700" type="line"/>
    </contour>
  </outline>
</glyph>
<glyph name="Te-cy" format="2">
  <advance width="674"/>
  <unicode hex="0422"/>
  <anchor x="286" y="0" name="bottom"/>
  <anchor x="166" y="0" name="bottomleft"/>
  <anchor x="349" y="315" name="center"/>
  <anchor x="426" y="700" name="top"/>
  <outline>
    <contour>
      <point x="166" y="0" type="line"/>
      <point x="398" y="0" type="line"/>
      <point x="509" y="568" type="line"/>
      <point x="448" y="517" type="line"/>
      <point x="707" y="517" type="line"/>
      <point x="743" y="700" type="line"/>
      <point x="101" y="700" type="line"/>
      <point x="65" y="517" type="line"/>
      <point x="318" y="517" type="line"/>
      <point x="277" y="568" type="line"/>
    </contour>
  </outline>
</glyph>
<glyph name="U-cy" format="2">
  <advance width="765"/>
  <unicode hex="0423"/>
  <anchor x="464" y="700" name="top"/>
  <outline>
    <contour>
      <point x="88" y="180" type="curve"/>
      <point x="13" y="15" type="line"/>
      <point x="175" y="-55"/>
      <point x="334" y="-7"/>
      <point x="460" y="165" type="curve" smooth="yes"/>
      <point x="847" y="700" type="line"/>
      <point x="614" y="700" type="line"/>
      <point x="325" y="285" type="line"/>
      <point x="300" y="263" type="line"/>
      <point x="257" y="223" type="line" smooth="yes"/>
      <point x="214" y="173"/>
      <point x="167" y="158"/>
    </contour>
    <contour>
      <point x="296" y="100" type="line"/>
      <point x="451" y="263" type="line"/>
      <point x="331" y="700" type="line"/>
      <point x="87" y="700" type="line"/>
    </contour>
  </outline>
</glyph>
<glyph name="Sha-cy" format="2">
  <advance width="1101"/>
  <unicode hex="0428"/>
  <guideline x="794" y="203" angle="258.7"/>
  <anchor x="755" y="0" name="bottomleft"/>
  <outline>
    <contour>
      <point x="471" y="183" type="line"/>
      <point x="228" y="183" type="line"/>
      <point x="268" y="132" type="line"/>
      <point x="379" y="700" type="line"/>
      <point x="147" y="700" type="line"/>
      <point x="7" y="0" type="line"/>
      <point x="984" y="0" type="line"/>
      <point x="1124" y="700" type="line"/>
      <point x="892" y="700" type="line"/>
      <point x="781" y="132" type="line"/>
      <point x="844" y="183" type="line"/>
      <point x="600" y="183" type="line"/>
      <point x="641" y="132" type="line"/>
      <point x="752" y="700" type="line"/>
      <point x="520" y="700" type="line"/>
      <point x="409" y="132" type="line"/>
    </contour>
  </outline>
</glyph>
<glyph name="Hardsign-cy" format="2">
  <advance width="869"/>
  <unicode hex="042A"/>
  <outline>
    <contour>
      <point x="616" y="485" type="curve" smooth="yes"/>
      <point x="471" y="485" type="line"/>
      <point x="514" y="700" type="line"/>
      <point x="102" y="700" type="line"/>
      <point x="65" y="517" type="line"/>
      <point x="245" y="517" type="line"/>
      <point x="142" y="0" type="line"/>
      <point x="489" y="0" type="line" smooth="yes"/>
      <point x="703" y="0"/>
      <point x="849" y="109"/>
      <point x="849" y="302" type="curve" smooth="yes"/>
      <point x="849" y="423"/>
      <point x="764" y="485"/>
    </contour>
    <contour>
      <point x="506" y="165" type="curve" smooth="yes"/>
      <point x="407" y="165" type="line"/>
      <point x="438" y="320" type="line"/>
      <point x="537" y="320" type="line" smooth="yes"/>
      <point x="577" y="320"/>
      <point x="607" y="306"/>
      <point x="607" y="266" type="curve" smooth="yes"/>
      <point x="607" y="204"/>
      <point x="560" y="165"/>
    </contour>
  </outline>
</glyph>
<glyph name="Softsign-cy" format="2">
  <advance width="734"/>
  <unicode hex="042C"/>
  <anchor x="7" y="0" name="#entry"/>
  <anchor x="251" y="580" name="center"/>
  <outline>
    <contour>
      <point x="481" y="485" type="curve" smooth="yes"/>
      <point x="336" y="485" type="line"/>
      <point x="379" y="700" type="line"/>
      <point x="147" y="700" type="line"/>
      <point x="7" y="0" type="line"/>
      <point x="357" y="0" type="line" smooth="yes"/>
      <point x="573" y="0"/>
      <point x="714" y="116"/>
      <point x="714" y="292" type="curve" smooth="yes"/>
      <point x="714" y="422"/>
      <point x="637" y="485"/>
    </contour>
    <contour>
      <point x="371" y="165" type="curve" smooth="yes"/>
      <point x="272" y="165" type="line"/>
      <point x="303" y="320" type="line"/>
      <point x="407" y="320" type="line" smooth="yes"/>
      <point x="452" y="320"/>
      <point x="472" y="303"/>
      <point x="472" y="265" type="curve" smooth="yes"/>
      <point x="472" y="208"/>
      <point x="429" y="165"/>
    </contour>
  </outline>
</glyph>
<glyph name="Iu-cy" format="2">
  <advance width="1138"/>
  <unicode hex="042E"/>
  <outline>
    <contour>
      <point x="7" y="0" type="line"/>
      <point x="239" y="0" type="line"/>
      <point x="291" y="258" type="line"/>
      <point x="472" y="258" type="line"/>
      <point x="510" y="452" type="line"/>
      <point x="329" y="452" type="line"/>
      <point x="379" y="700" type="line"/>
      <point x="147" y="700" type="line"/>
    </contour>
    <contour>
      <point x="684" y="-16" type="curve" smooth="yes"/>
      <point x="930" y="-16"/>
      <point x="1132" y="170"/>
      <point x="1132" y="399" type="curve" smooth="yes"/>
      <point x="1132" y="588"/>
      <point x="995" y="716"/>
      <point x="791" y="716" type="curve" smooth="yes"/>
      <point x="546" y="716"/>
      <point x="343" y="530"/>
      <point x="343" y="301" type="curve" smooth="yes"/>
      <point x="343" y="113"/>
      <point x="480" y="-16"/>
    </contour>
    <contour>
      <point x="705" y="175" type="curve" smooth="yes"/>
      <point x="630" y="175"/>
      <point x="584" y="228"/>
      <point x="584" y="314" type="curve" smooth="yes"/>
      <point x="584" y="429"/>
      <point x="668" y="525"/>
      <point x="770" y="525" type="curve" smooth="yes"/>
      <point x="845" y="525"/>
      <point x="891" y="473"/>
      <point x="891" y="387" type="curve" smooth="yes"/>
      <point x="891" y="271"/>
      <point x="807" y="175"/>
    </contour>
  </outline>
</glyph>
<glyph name="Ia-cy" format="2">
  <advance width="744"/>
  <unicode hex="042F"/>
  <outline>
    <contour>
      <point x="395" y="0" type="line"/>
      <point x="627" y="0" type="line"/>
      <point x="767" y="700" type="line"/>
      <point x="429" y="700" type="line" smooth="yes"/>
      <point x="204" y="700"/>
      <point x="54" y="579"/>
      <point x="54" y="398" type="curve" smooth="yes"/>
      <point x="54" y="252"/>
      <point x="153" y="166"/>
      <point x="322" y="166" type="curve" smooth="yes"/>
      <point x="483" y="166" type="line"/>
      <point x="438" y="213" type="line"/>
    </contour>
    <contour>
      <point x="-26" y="0" type="line"/>
      <point x="229" y="0" type="line"/>
      <point x="444" y="255" type="line"/>
      <point x="201" y="255" type="line"/>
    </contour>
    <contour>
      <point x="452" y="287" type="line"/>
      <point x="519" y="344" type="line"/>
      <point x="372" y="344" type="line" smooth="yes"/>
      <point x="320" y="344"/>
      <point x="297" y="367"/>
      <point x="297" y="416" type="curve" smooth="yes"/>
      <point x="297" y="480"/>
      <point x="337" y="517"/>
      <point x="406" y="517" type="curve" smooth="yes"/>
      <point x="553" y="517" type="line"/>
      <point x="510" y="574" type="line"/>
    </contour>
  </outline>
</glyph>
<glyph name="de-cy" format="2">
  <advance width="745"/>
  <unicode hex="0434"/>
  <outline>
    <contour>
      <point x="399" y="97" type="line"/>
      <point x="624" y="97" type="line"/>
      <point x="714" y="547" type="line"/>
      <point x="178" y="547" type="line"/>
      <point x="134" y="363" type="line" smooth="yes"/>
      <point x="111" y="264"/>
      <point x="71" y="177"/>
      <point x="1" y="177" type="curve"/>
      <point x="230" y="145" type="line"/>
      <point x="299" y="174"/>
      <point x="309" y="234"/>
      <point x="331" y="328" type="curve" smooth="yes"/>
      <point x="341" y="371" type="line"/>
      <point x="453" y="371" type="line"/>
    </contour>
    <contour>
      <point x="-64" y="-108" type="line"/>
      <point x="145" y="-108" type="line"/>
      <point x="166" y="0" type="line"/>
      <point x="468" y="0" type="line"/>
      <point x="447" y="-108" type="line"/>
      <point x="656" y="-108" type="line"/>
      <point x="713" y="177" type="line"/>
      <point x="-7" y="177" type="line"/>
    </contour>
  </outline>
</glyph>
<glyph name="ze-cy" format="2">
  <advance width="558"/>
  <unicode hex="0437"/>
  <anchor x="227" y="0" name="bottom"/>
  <anchor x="326" y="547" name="top"/>
  <outline>
    <contour>
      <point x="206" y="-13" type="curve" smooth="yes"/>
      <point x="388" y="-13"/>
      <point x="521" y="66"/>
      <point x="521" y="170" type="curve" smooth="yes"/>
      <point x="521" y="249"/>
      <point x="448" y="299"/>
      <point x="343" y="299" type="curve"/>
      <point x="347" y="259" type="line"/>
      <point x="458" y="259"/>
      <point x="540" y="323"/>
      <point x="540" y="405" type="curve" smooth="yes"/>
      <point x="540" y="498"/>
      <point x="434" y="559"/>
      <point x="285" y="559" type="curve" smooth="yes"/>
      <point x="212" y="559"/>
      <point x="132" y="544"/>
      <point x="61" y="518" type="curve"/>
      <point x="105" y="361" type="line"/>
      <point x="172" y="390"/>
      <point x="214" y="401"/>
      <point x="263" y="401" type="curve" smooth="yes"/>
      <point x="309" y="401"/>
      <point x="326" y="392"/>
      <point x="326" y="371" type="curve" smooth="yes"/>
      <point x="326" y="350"/>
      <point x="308" y="339"/>
      <point x="272" y="339" type="curve" smooth="yes"/>
      <point x="168" y="339" type="line"/>
      <point x="148" y="213" type="line"/>
      <point x="273" y="213" type="line" smooth="yes"/>
      <point x="301" y="213"/>
      <point x="311" y="207"/>
      <point x="311" y="189" type="curve" smooth="yes"/>
      <point x="311" y="161"/>
      <point x="280" y="147"/>
      <point x="215" y="147" type="curve" smooth="yes"/>
      <point x="154" y="147"/>
      <point x="86" y="159"/>
      <point x="38" y="178" type="curve"/>
      <point x="-31" y="32" type="line"/>
      <point x="49" y="2"/>
      <point x="126" y="-13"/>
    </contour>
  </outline>
</glyph>
<glyph name="ka-cy" format="2">
  <advance width="692"/>
  <unicode hex="043A"/>
  <anchor x="377" y="0" name="bottomleft"/>
  <anchor x="639" y="0" name="bottomright"/>
  <anchor x="410" y="547" name="top"/>
  <outline>
    <contour>
      <point x="377" y="0" type="line"/>
      <point x="639" y="0" type="line"/>
      <point x="475" y="337" type="line"/>
      <point x="288" y="251" type="line"/>
    </contour>
    <contour>
      <point x="-2" y="0" type="line"/>
      <point x="224" y="0" type="line"/>
      <point x="334" y="547" type="line"/>
      <point x="108" y="547" type="line"/>
    </contour>
    <contour>
      <point x="195" y="182" type="line"/>
      <point x="399" y="182" type="line"/>
      <point x="433" y="355" type="line"/>
      <point x="229" y="355" type="line"/>
    </contour>
    <contour>
      <point x="484" y="246" type="line"/>
      <point x="744" y="547" type="line"/>
      <point x="500" y="547" type="line"/>
      <point x="270" y="269" type="line"/>
    </contour>
  </outline>
</glyph>
<glyph name="te-cy" format="2">
  <advance width="583"/>
  <unicode hex="0442"/>
  <anchor x="240" y="0" name="bottom"/>
  <anchor x="124" y="0" name="bottomleft"/>
  <anchor x="288" y="238" name="center"/>
  <anchor x="350" y="547" name="top"/>
  <outline>
    <contour>
      <point x="124" y="0" type="line"/>
      <point x="349" y="0" type="line"/>
      <point x="430" y="419" type="line"/>
      <point x="372" y="371" type="line"/>
      <point x="590" y="371" type="line"/>
      <point x="626" y="547" type="line"/>
      <point x="67" y="547" type="line"/>
      <point x="31" y="371" type="line"/>
      <point x="245" y="371" type="line"/>
      <point x="205" y="419" type="line"/>
    </contour>
  </outline>
</glyph>
<glyph name="che-cy" format="2">
  <advance width="661"/>
  <unicode hex="0447"/>
  <anchor x="328" y="0" name="bottomleft"/>
  <anchor x="586" y="0" name="bottomright"/>
  <anchor x="366" y="547" name="top"/>
  <outline>
    <contour>
      <point x="387" y="189" type="curve"/>
      <point x="406" y="352" type="line"/>
      <point x="383" y="337"/>
      <point x="350" y="322"/>
      <point x="305" y="322" type="curve" smooth="yes"/>
      <point x="270" y="322"/>
      <point x="258" y="330"/>
      <point x="269" y="386" type="curve" smooth="yes"/>
      <point x="302" y="547" type="line"/>
      <point x="77" y="547" type="line"/>
      <point x="45" y="389" type="line" smooth="yes"/>
      <point x="14" y="232"/>
      <point x="84" y="157"/>
      <point x="249" y="157" type="curve" smooth="yes"/>
      <point x="307" y="157"/>
      <point x="353" y="168"/>
    </contour>
    <contour>
      <point x="328" y="0" type="line"/>
      <point x="553" y="0" type="line"/>
      <point x="663" y="547" type="line"/>
      <point x="438" y="547" type="line"/>
    </contour>
  </outline>
</glyph>
<glyph name="yeru-cy" format="2">
  <advance width="920"/>
  <unicode hex="044B"/>
  <anchor x="515" y="547" name="top"/>
  <outline>
    <contour>
      <point x="587" y="0" type="line"/>
      <point x="812" y="0" type="line"/>
      <point x="922" y="547" type="line"/>
      <point x="697" y="547" type="line"/>
    </contour>
    <contour>
      <point x="396" y="382" type="curve" smooth="yes"/>
      <point x="300" y="382" type="line"/>
      <point x="333" y="547" type="line"/>
      <point x="108" y="547" type="line"/>
      <point x="-1" y="0" type="line"/>
      <point x="309" y="0" type="line" smooth="yes"/>
      <point x="484" y="0"/>
      <point x="598" y="87"/>
      <point x="598" y="220" type="curve" smooth="yes"/>
      <point x="598" y="325"/>
      <point x="527" y="382"/>
    </contour>
    <contour>
      <point x="309" y="152" type="curve" smooth="yes"/>
      <point x="254" y="152" type="line"/>
      <point x="274" y="250" type="line"/>
      <point x="329" y="250" type="line" smooth="yes"/>
      <point x="357" y="250"/>
      <point x="370" y="238"/>
      <point x="370" y="212" type="curve" smooth="yes"/>
      <point x="370" y="175"/>
      <point x="346" y="152"/>
    </contour>
  </outline>
</glyph>
<glyph name="softsign-cy" format="2">
  <advance width="639"/>
  <unicode hex="044C"/>
  <anchor x="-1" y="0" name="#entry"/>
  <outline>
    <contour>
      <point x="411" y="382" type="curve" smooth="yes"/>
      <point x="300" y="382" type="line"/>
      <point x="333" y="547" type="line"/>
      <point x="108" y="547" type="line"/>
      <point x="-1" y="0" type="line"/>
      <point x="324" y="0" type="line" smooth="yes"/>
      <point x="499" y="0"/>
      <point x="613" y="87"/>
      <point x="613" y="220" type="curve" smooth="yes"/>
      <point x="613" y="325"/>
      <point x="542" y="382"/>
    </contour>
    <contour>
      <point x="324" y="152" type="curve" smooth="yes"/>
      <point x="254" y="152" type="line"/>
      <point x="274" y="250" type="line"/>
      <point x="344" y="250" type="line" smooth="yes"/>
      <point x="372" y="250"/>
      <point x="385" y="238"/>
      <point x="385" y="212" type="curve" smooth="yes"/>
      <point x="385" y="175"/>
      <point x="361" y="152"/>
    </contour>
  </outline>
</glyph>
<glyph name="ia-cy" format="2">
  <advance width="650"/>
  <unicode hex="044F"/>
  <guideline x="130" y="273" angle="0"/>
  <outline>
    <contour>
      <point x="342" y="0" type="line"/>
      <point x="542" y="0" type="line"/>
      <point x="651" y="547" type="line"/>
      <point x="355" y="547" type="line" smooth="yes"/>
      <point x="155" y="547"/>
      <point x="33" y="462"/>
      <point x="33" y="314" type="curve" smooth="yes"/>
      <point x="33" y="210"/>
      <point x="121" y="139"/>
      <point x="273" y="139" type="curve" smooth="yes"/>
      <point x="398" y="139" type="line"/>
      <point x="376" y="172" type="line"/>
    </contour>
    <contour>
      <point x="-41" y="0" type="line"/>
      <point x="208" y="0" type="line"/>
      <point x="371" y="207" type="line"/>
      <point x="143" y="207" type="line"/>
    </contour>
    <contour>
      <point x="390" y="239" type="line"/>
      <point x="426" y="280" type="line"/>
      <point x="315" y="280" type="line" smooth="yes"/>
      <point x="282" y="280"/>
      <point x="265" y="291"/>
      <point x="265" y="317" type="curve" smooth="yes"/>
      <point x="265" y="355"/>
      <point x="288" y="372"/>
      <point x="333" y="372" type="curve" smooth="yes"/>
      <point x="444" y="372" type="line"/>
      <point x="427" y="426" type="line"/>
    </contour>
  </outline>
</glyph>
<glyph name="e-cy" format="2">
  <advance width="615"/>
  <unicode hex="0454"/>
  <outline>
    <contour>
      <point x="438" y="346" type="line"/>
      <point x="176" y="346" type="line"/>
      <point x="146" y="199" type="line"/>
      <point x="408" y="199" type="line"/>
    </contour>
    <contour>
      <point x="302" y="-14" type="curve" smooth="yes"/>
      <point x="408" y="-14"/>
      <point x="507" y="27"/>
      <point x="578" y="100" type="curve"/>
      <point x="472" y="215" type="line"/>
      <point x="426" y="170"/>
      <point x="385" y="151"/>
      <point x="335" y="151" type="curve" smooth="yes"/>
      <point x="266" y="151"/>
      <point x="228" y="188"/>
      <point x="228" y="254" type="curve" smooth="yes"/>
      <point x="228" y="336"/>
      <point x="287" y="395"/>
      <point x="371" y="395" type="curve" smooth="yes"/>
      <point x="422" y="395"/>
      <point x="464" y="373"/>
      <point x="495" y="331" type="curve"/>
      <point x="634" y="441" type="line"/>
      <point x="583" y="519"/>
      <point x="497" y="561"/>
      <point x="383" y="561" type="curve" smooth="yes"/>
      <point x="172" y="561"/>
      <point x="18" y="428"/>
      <point x="18" y="247" type="curve" smooth="yes"/>
      <point x="18" y="92"/>
      <point x="133" y="-14"/>
    </contour>
  </outline>
</glyph>
<glyph name="nje-cy" format="2">
  <advance width="996"/>
  <unicode hex="045A"/>
  <outline>
    <contour>
      <point x="517" y="191" type="line"/>
      <point x="552" y="368" type="line"/>
      <point x="297" y="368" type="line"/>
      <point x="333" y="547" type="line"/>
      <point x="108" y="547" type="line"/>
      <point x="-2" y="0" type="line"/>
      <point x="223" y="0" type="line"/>
      <point x="262" y="191" type="line"/>
    </contour>
    <contour>
      <point x="772" y="368" type="curve" smooth="yes"/>
      <point x="667" y="368" type="line"/>
      <point x="703" y="547" type="line"/>
      <point x="478" y="547" type="line"/>
      <point x="369" y="0" type="line"/>
      <point x="688" y="0" type="line" smooth="yes"/>
      <point x="858" y="0"/>
      <point x="969" y="84"/>
      <point x="969" y="211" type="curve" smooth="yes"/>
      <point x="969" y="313"/>
      <point x="900" y="368"/>
    </contour>
    <contour>
      <point x="688" y="151" type="curve" smooth="yes"/>
      <point x="624" y="151" type="line"/>
      <point x="642" y="237" type="line"/>
      <point x="706" y="237" type="line" smooth="yes"/>
      <point x="730" y="237"/>
      <point x="741" y="227"/>
      <point x="741" y="204" type="curve" smooth="yes"/>
      <point x="741" y="171"/>
      <point x="720" y="151"/>
    </contour>
  </outline>
</glyph>
<glyph name="yat-cy" format="2">
  <advance width="686"/>
  <unicode hex="0463"/>
  <outline>
    <contour>
      <point x="40" y="468" type="line"/>
      <point x="550" y="468" type="line"/>
      <point x="576" y="598" type="line"/>
      <point x="66" y="598" type="line"/>
    </contour>
    <contour>
      <point x="458" y="382" type="curve" smooth="yes"/>
      <point x="347" y="382" type="line"/>
      <point x="419" y="742" type="line"/>
      <point x="194" y="742" type="line"/>
      <point x="46" y="0" type="line"/>
      <point x="371" y="0" type="line" smooth="yes"/>
      <point x="546" y="0"/>
      <point x="660" y="87"/>
      <point x="660" y="220" type="curve" smooth="yes"/>
      <point x="660" y="325"/>
      <point x="589" y="382"/>
    </contour>
    <contour>
      <point x="371" y="152" type="curve" smooth="yes"/>
      <point x="301" y="152" type="line"/>
      <point x="321" y="250" type="line"/>
      <point x="391" y="250" type="line" smooth="yes"/>
      <point x="419" y="250"/>
      <point x="432" y="238"/>
      <point x="432" y="212" type="curve" smooth="yes"/>
      <point x="432" y="175"/>
      <point x="408" y="152"/>
    </contour>
  </outline>
</glyph>
<glyph name="Yusbig-cy" format="2">
  <advance width="999"/>
  <unicode hex="046A"/>
  <outline>
    <contour>
      <point x="-49" y="0" type="line"/>
      <point x="192" y="0" type="line"/>
      <point x="224" y="82" type="line" smooth="yes"/>
      <point x="272" y="205"/>
      <point x="315" y="241"/>
      <point x="364" y="241" type="curve" smooth="yes"/>
      <point x="387" y="241" type="line"/>
      <point x="339" y="0" type="line"/>
      <point x="549" y="0" type="line"/>
      <point x="597" y="241" type="line"/>
      <point x="624" y="241" type="line" smooth="yes"/>
      <point x="670" y="241"/>
      <point x="696" y="202"/>
      <point x="696" y="82" type="curve" smooth="yes"/>
      <point x="696" y="0" type="line"/>
      <point x="938" y="0" type="line"/>
      <point x="924" y="131" type="line" smooth="yes"/>
      <point x="902" y="335"/>
      <point x="832" y="393"/>
      <point x="716" y="393" type="curve" smooth="yes"/>
      <point x="332" y="393" type="line" smooth="yes"/>
      <point x="215" y="393"/>
      <point x="125" y="335"/>
      <point x="19" y="131" type="curve" smooth="yes"/>
    </contour>
    <contour>
      <point x="522" y="392" type="line"/>
      <point x="416" y="544" type="line"/>
      <point x="691" y="544" type="line"/>
    </contour>
    <contour>
      <point x="321" y="348" type="line"/>
      <point x="704" y="348" type="line"/>
      <point x="944" y="562" type="line"/>
      <point x="972" y="700" type="line"/>
      <point x="196" y="700" type="line"/>
      <point x="168" y="562" type="line"/>
    </contour>
  </outline>
</glyph>
<glyph name="Izhitsa-cy" format="2">
  <advance width="823"/>
  <unicode hex="0474"/>
  <guideline x="762" y="716" angle="0"/>
  <outline>
    <contour>
      <point x="230" y="0" type="line"/>
      <point x="462" y="0" type="line"/>
      <point x="699" y="414" type="line" smooth="yes"/>
      <point x="739" y="489"/>
      <point x="775" y="514"/>
      <point x="843" y="495" type="curve"/>
      <point x="891" y="701" type="line"/>
      <point x="719" y="743"/>
      <point x="618" y="711"/>
      <point x="543" y="571" type="curve" smooth="yes"/>
      <point x="404" y="310" type="line"/>
      <point x="338" y="700" type="line"/>
      <point x="89" y="700" type="line"/>
    </contour>
  </outline>
</glyph>
<glyph name="semisoftsign-cy" format="2">
  <advance width="681"/>
  <unicode hex="048D"/>
  <outline>
    <contour>
      <point x="32" y="388" type="line"/>
      <point x="532" y="388" type="line"/>
      <point x="556" y="508" type="line"/>
      <point x="56" y="508" type="line"/>
    </contour>
    <contour>
      <point x="449" y="354" type="curve" smooth="yes"/>
      <point x="338" y="354" type="line"/>
      <point x="377" y="547" type="line"/>
      <point x="152" y="547" type="line"/>
      <point x="44" y="0" type="line"/>
      <point x="369" y="0" type="line" smooth="yes"/>
      <point x="542" y="0"/>
      <point x="654" y="79"/>
      <point x="654" y="200" type="curve" smooth="yes"/>
      <point x="654" y="299"/>
      <point x="582" y="354"/>
    </contour>
    <contour>
      <point x="366" y="146" type="curve" smooth="yes"/>
      <point x="297" y="146" type="line"/>
      <point x="313" y="229" type="line"/>
      <point x="384" y="229" type="line" smooth="yes"/>
      <point x="413" y="229"/>
      <point x="426" y="219"/>
      <point x="426" y="196" type="curve" smooth="yes"/>
      <point x="426" y="165"/>
      <point x="402" y="146"/>
    </contour>
  </outline>
</glyph>
<glyph name="Kaverticalstroke-cy" format="2">
  <advance width="817"/>
  <unicode hex="049C"/>
  <outline>
    <contour>
      <point x="485" y="0" type="line"/>
      <point x="755" y="0" type="line"/>
      <point x="610" y="438" type="line"/>
      <point x="406" y="328" type="line"/>
    </contour>
    <contour>
      <point x="7" y="0" type="line"/>
      <point x="237" y="0" type="line"/>
      <point x="377" y="700" type="line"/>
      <point x="147" y="700" type="line"/>
    </contour>
    <contour>
      <point x="220" y="253" type="line"/>
      <point x="521" y="253" type="line"/>
      <point x="558" y="439" type="line"/>
      <point x="257" y="439" type="line"/>
    </contour>
    <contour>
      <point x="304" y="158" type="line"/>
      <point x="394" y="158" type="line"/>
      <point x="470" y="537" type="line"/>
      <point x="380" y="537" type="line"/>
    </contour>
    <contour>
      <point x="618" y="325" type="line"/>
      <point x="886" y="700" type="line"/>
      <point x="635" y="700" type="line"/>
      <point x="399" y="347" type="line"/>
    </contour>
  </outline>
</glyph>
<glyph name="kaverticalstroke-cy" format="2">
  <advance width="705"/>
  <unicode hex="049D"/>
  <outline>
    <contour>
      <point x="195" y="182" type="line"/>
      <point x="449" y="182" type="line"/>
      <point x="483" y="355" type="line"/>
      <point x="229" y="355" type="line"/>
    </contour>
    <contour>
      <point x="392" y="0" type="line"/>
      <point x="649" y="0" type="line"/>
      <point x="525" y="337" type="line"/>
      <point x="347" y="251" type="line"/>
    </contour>
    <contour>
      <point x="-2" y="0" type="line"/>
      <point x="224" y="0" type="line"/>
      <point x="334" y="547" type="line"/>
      <point x="108" y="547" type="line"/>
    </contour>
    <contour>
      <point x="264" y="126" type="line"/>
      <point x="340" y="126" type="line"/>
      <point x="399" y="425" type="line"/>
      <point x="326" y="425" type="line"/>
    </contour>
    <contour>
      <point x="534" y="246" type="line"/>
      <point x="754" y="547" type="line"/>
      <point x="510" y="547" type="line"/>
      <point x="339" y="269" type="line"/>
    </contour>
  </outline>
</glyph>
<glyph name="kabashkir-cy" format="2">
  <advance width="791"/>
  <unicode hex="04A1"/>
  <anchor x="391" y="0" name="bottom"/>
  <anchor x="501" y="547" name="top"/>
  <outline>
    <contour>
      <point x="32" y="375" type="line"/>
      <point x="397" y="375" type="line"/>
      <point x="432" y="547" type="line"/>
      <point x="67" y="547" type="line"/>
    </contour>
    <contour>
      <point x="476" y="0" type="line"/>
      <point x="738" y="0" type="line"/>
      <point x="574" y="337" type="line"/>
      <point x="387" y="251" type="line"/>
    </contour>
    <contour>
      <point x="97" y="0" type="line"/>
      <point x="323" y="0" type="line"/>
      <point x="433" y="547" type="line"/>
      <point x="207" y="547" type="line"/>
    </contour>
    <contour>
      <point x="294" y="182" type="line"/>
      <point x="498" y="182" type="line"/>
      <point x="532" y="355" type="line"/>
      <point x="328" y="355" type="line"/>
    </contour>
    <contour>
      <point x="583" y="246" type="line"/>
      <point x="843" y="547" type="line"/>
      <point x="599" y="547" type="line"/>
      <point x="369" y="269" type="line"/>
    </contour>
  </outline>
</glyph>
<glyph name="haabkhasian-cy" format="2">
  <advance width="909"/>
  <unicode hex="04A9"/>
  <outline>
    <contour>
      <point x="352" y="-15" type="curve" smooth="yes"/>
      <point x="609" y="-15"/>
      <point x="858" y="164"/>
      <point x="858" y="362" type="curve" smooth="yes"/>
      <point x="858" y="485"/>
      <point x="763" y="563"/>
      <point x="616" y="563" type="curve" smooth="yes"/>
      <point x="444" y="563"/>
      <point x="327" y="456"/>
      <point x="327" y="302" type="curve" smooth="yes"/>
      <point x="327" y="74"/>
      <point x="576" y="-64"/>
      <point x="846" y="0" type="curve"/>
      <point x="870" y="145" type="line"/>
      <point x="668" y="102"/>
      <point x="522" y="160"/>
      <point x="522" y="303" type="curve" smooth="yes"/>
      <point x="522" y="366"/>
      <point x="552" y="404"/>
      <point x="602" y="404" type="curve" smooth="yes"/>
      <point x="641" y="404"/>
      <point x="659" y="382"/>
      <point x="659" y="335" type="curve" smooth="yes"/>
      <point x="659" y="221"/>
      <point x="550" y="134"/>
      <point x="412" y="134" type="curve" smooth="yes"/>
      <point x="309" y="134"/>
      <point x="256" y="182"/>
      <point x="256" y="271" type="curve" smooth="yes"/>
      <point x="256" y="342"/>
      <point x="290" y="411"/>
      <point x="360" y="485" type="curve"/>
      <point x="164" y="563" type="line"/>
      <point x="77" y="483"/>
      <point x="29" y="386"/>
      <point x="29" y="274" type="curve" smooth="yes"/>
      <point x="29" y="95"/>
      <point x="150" y="-15"/>
    </contour>
  </outline>
</glyph>
<glyph name="Ustrait-cy" format="2">
  <advance width="766"/>
  <unicode hex="04AE"/>
  <anchor x="328" y="0" name="bottom"/>
  <anchor x="372" y="217" name="center"/>
  <anchor x="468" y="700" name="top"/>
  <anchor x="205" y="700" name="topleft"/>
  <outline>
    <contour>
      <point x="210" y="0" type="line"/>
      <point x="446" y="0" type="line"/>
      <point x="507" y="307" type="line"/>
      <point x="427" y="166" type="line"/>
      <point x="850" y="700" type="line"/>
      <point x="613" y="700" type="line"/>
      <point x="318" y="333" type="line"/>
      <point x="467" y="333" type="line"/>
      <point x="323" y="700" type="line"/>
      <point x="86" y="700" type="line"/>
      <point x="297" y="166" type="line"/>
      <point x="271" y="307" type="line"/>
    </contour>
  </outline>
</glyph>
<glyph name="tetse-cy" format="2">
  <advance width="830"/>
  <unicode hex="04B5"/>
  <outline>
    <contour>
      <point x="125" y="0" type="line"/>
      <point x="697" y="0" type="line"/>
      <point x="806" y="547" type="line"/>
      <point x="581" y="547" type="line"/>
      <point x="507" y="177" type="line"/>
      <point x="385" y="177" type="line"/>
      <point x="459" y="547" type="line"/>
      <point x="234" y="547" type="line"/>
    </contour>
    <contour>
      <point x="535" y="-101" type="line"/>
      <point x="744" y="-101" type="line"/>
      <point x="799" y="177" type="line"/>
      <point x="508" y="177" type="line"/>
      <point x="473" y="0" type="line"/>
      <point x="603" y="0" type="line"/>
      <point x="564" y="48" type="line"/>
    </contour>
    <contour>
      <point x="538" y="547" type="line"/>
      <point x="67" y="547" type="line"/>
      <point x="32" y="371" type="line"/>
      <point x="503" y="371" type="line"/>
    </contour>
  </outline>
</glyph>
<glyph name="Cheverticalstroke-cy" format="2">
  <advance width="764"/>
  <unicode hex="04B8"/>
  <outline>
    <contour>
      <point x="286" y="108" type="line"/>
      <point x="376" y="108" type="line"/>
      <point x="452" y="489" type="line"/>
      <point x="362" y="489" type="line"/>
    </contour>
    <component base="Che-cy"/>
  </outline>
</glyph>
<glyph name="cheabkhasian-cy" format="2">
  <advance width="869"/>
  <unicode hex="04BD"/>
  <guideline x="768" y="218" angle="0"/>
  <guideline x="768" y="325" angle="0"/>
  <anchor x="495" y="0" name="bottom"/>
  <anchor x="597" y="547" name="top"/>
  <outline>
    <contour>
      <point x="331" y="221" type="line"/>
      <point x="351" y="330" type="line"/>
      <point x="247" y="330" type="line" smooth="yes"/>
      <point x="193" y="330"/>
      <point x="190" y="383"/>
      <point x="231" y="444" type="curve"/>
      <point x="69" y="472" type="line"/>
      <point x="-17" y="309"/>
      <point x="32" y="221"/>
      <point x="202" y="221" type="curve" smooth="yes"/>
    </contour>
    <contour>
      <point x="536" y="-10" type="curve" smooth="yes"/>
      <point x="620" y="-10"/>
      <point x="703" y="7"/>
      <point x="779" y="58" type="curve"/>
      <point x="683" y="195" type="line"/>
      <point x="648" y="169"/>
      <point x="604" y="157"/>
      <point x="562" y="157" type="curve" smooth="yes"/>
      <point x="490" y="157"/>
      <point x="452" y="183"/>
      <point x="452" y="251" type="curve" smooth="yes"/>
      <point x="452" y="327"/>
      <point x="480" y="403"/>
      <point x="564" y="403" type="curve" smooth="yes"/>
      <point x="622" y="403"/>
      <point x="659" y="364"/>
      <point x="644" y="301" type="curve"/>
      <point x="740" y="330" type="line"/>
      <point x="434" y="330" type="line"/>
      <point x="412" y="221" type="line"/>
      <point x="846" y="221" type="line"/>
      <point x="853" y="250"/>
      <point x="858" y="282"/>
      <point x="858" y="316" type="curve" smooth="yes"/>
      <point x="858" y="457"/>
      <point x="753" y="557"/>
      <point x="574" y="557" type="curve" smooth="yes"/>
      <point x="366" y="557"/>
      <point x="228" y="423"/>
      <point x="228" y="243" type="curve" smooth="yes"/>
      <point x="228" y="88"/>
      <point x="352" y="-10"/>
    </contour>
  </outline>
</glyph>
<glyph name="enhook-cy" format="2">
  <advance width="710"/>
  <unicode hex="04C8"/>
  <outline>
    <contour>
      <point x="324" y="-204" type="curve" smooth="yes"/>
      <point x="475" y="-204"/>
      <point x="580" y="-113"/>
      <point x="608" y="28" type="curve"/>
      <point x="712" y="547" type="line"/>
      <point x="487" y="547" type="line"/>
      <point x="449" y="355" type="line"/>
      <point x="295" y="355" type="line"/>
      <point x="333" y="547" type="line"/>
      <point x="108" y="547" type="line"/>
      <point x="-1" y="0" type="line"/>
      <point x="224" y="0" type="line"/>
      <point x="259" y="178" type="line"/>
      <point x="413" y="178" type="line"/>
      <point x="384" y="30" type="line"/>
      <point x="375" y="-15"/>
      <point x="351" y="-34"/>
      <point x="324" y="-34" type="curve" smooth="yes"/>
      <point x="306" y="-34"/>
      <point x="289" y="-29"/>
      <point x="276" y="-21" type="curve"/>
      <point x="190" y="-177" type="line"/>
      <point x="222" y="-195"/>
      <point x="271" y="-204"/>
    </contour>
  </outline>
</glyph>
<glyph name="palochka-cy" format="2">
  <advance width="332"/>
  <unicode hex="04CF"/>
  <anchor x="111" y="0" name="bottom"/>
  <anchor x="185" y="370" name="center"/>
  <anchor x="438" y="370" name="dot"/>
  <anchor x="259" y="742" name="top"/>
  <anchor x="442" y="742" name="topright"/>
  <outline>
    <contour>
      <point x="-2" y="0" type="line"/>
      <point x="224" y="0" type="line"/>
      <point x="372" y="742" type="line"/>
      <point x="146" y="742" type="line"/>
    </contour>
  </outline>
</glyph>
<glyph name="Gestrokehook-cy" format="2">
  <advance width="671"/>
  <unicode hex="04FA"/>
  <guideline x="479" y="-50" angle="0"/>
  <anchor x="460" y="700" name="top"/>
  <outline>
    <contour>
      <point x="60" y="0" type="line"/>
      <point x="296" y="0" type="line"/>
      <point x="400" y="517" type="line"/>
      <point x="701" y="517" type="line"/>
      <point x="737" y="700" type="line"/>
      <point x="200" y="700" type="line"/>
    </contour>
    <contour>
      <point x="85" y="-207" type="curve" smooth="yes"/>
      <point x="217" y="-207"/>
      <point x="338" y="-128"/>
      <point x="368" y="23" type="curve" smooth="yes"/>
      <point x="389" y="127" type="line"/>
      <point x="86" y="127" type="line"/>
      <point x="60" y="0" type="line"/>
      <point x="203" y="0" type="line"/>
      <point x="147" y="42" type="line"/>
      <point x="143" y="25" type="line"/>
      <point x="134" y="-21"/>
      <point x="107" y="-46"/>
      <point x="65" y="-46" type="curve" smooth="yes"/>
      <point x="52" y="-46"/>
      <point x="37" y="-43"/>
      <point x="20" y="-36" type="curve"/>
      <point x="-56" y="-177" type="line"/>
      <point x="-10" y="-197"/>
      <point x="38" y="-207"/>
    </contour>
    <contour>
      <point x="11" y="253" type="line"/>
      <point x="596" y="253" type="line"/>
      <point x="622" y="383" type="line"/>
      <point x="37" y="383" type="line"/>
    </contour>
  </outline>
</glyph>
<glyph name="gestrokehook-cy" format="2">
  <advance width="557"/>
  <unicode hex="04FB"/>
  <outline>
    <contour>
      <point x="43" y="0" type="line"/>
      <point x="269" y="0" type="line"/>
      <point x="344" y="371" type="line"/>
      <point x="561" y="371" type="line"/>
      <point x="596" y="547" type="line"/>
      <point x="153" y="547" type="line"/>
    </contour>
    <contour>
      <point x="65" y="-204" type="curve" smooth="yes"/>
      <point x="200" y="-204"/>
      <point x="319" y="-121"/>
      <point x="349" y="28" type="curve" smooth="yes"/>
      <point x="369" y="127" type="line"/>
      <point x="69" y="127" type="line"/>
      <point x="43" y="0" type="line"/>
      <point x="183" y="0" type="line"/>
      <point x="127" y="43" type="line"/>
      <point x="122" y="19" type="line"/>
      <point x="113" y="-27"/>
      <point x="86" y="-50"/>
      <point x="51" y="-50" type="curve" smooth="yes"/>
      <point x="37" y="-50"/>
      <point x="22" y="-46"/>
      <point x="6" y="-39" type="curve"/>
      <point x="-69" y="-177" type="line"/>
      <point x="-25" y="-195"/>
      <point x="21" y="-204"/>
    </contour>
    <contour>
      <point x="-6" y="198" type="line"/>
      <point x="471" y="198" type="line"/>
      <point x="495" y="318" type="line"/>
      <point x="18" y="318" type="line"/>
    </contour>
  </outline>
</glyph>
<glyph name="Eldescender-cy" format="2">
  <advance width="851"/>
  <unicode hex="052E"/>
  <anchor x="458" y="0" name="#exit"/>
  <anchor x="458" y="0" name="bottomleft"/>
  <outline>
    <contour>
      <point x="56" y="-13" type="curve" smooth="yes"/>
      <point x="228" y="-13"/>
      <point x="304" y="82"/>
      <point x="371" y="380" type="curve" smooth="yes"/>
      <point x="414" y="570" type="line"/>
      <point x="357" y="517" type="line"/>
      <point x="612" y="517" type="line"/>
      <point x="571" y="567" type="line"/>
      <point x="458" y="0" type="line"/>
      <point x="690" y="0" type="line"/>
      <point x="830" y="700" type="line"/>
      <point x="239" y="700" type="line"/>
      <point x="175" y="427" type="line" smooth="yes"/>
      <point x="133" y="247"/>
      <point x="97" y="186"/>
      <point x="34" y="186" type="curve" smooth="yes"/>
      <point x="26" y="186"/>
      <point x="17" y="187"/>
      <point x="9" y="189" type="curve"/>
      <point x="-41" y="0" type="line"/>
      <point x="-12" y="-9"/>
      <point x="20" y="-13"/>
    </contour>
    <contour>
      <point x="536" y="-137" type="line"/>
      <point x="752" y="-137" type="line"/>
      <point x="816" y="183" type="line"/>
      <point x="496" y="183" type="line"/>
      <point x="458" y="0" type="line"/>
      <point x="615" y="0" type="line"/>
      <point x="574" y="51" type="line"/>
    </contour>
  </outline>
</glyph>
<glyph name="quoteright" format="2">
  <advance width="304"/>
  <unicode hex="2019"/>
  <outline>
    <contour>
      <point x="49" y="344" type="line"/>
      <point x="189" y="344" type="line"/>
      <point x="307" y="517" type="line" smooth="yes"/>
      <point x="342" y="568"/>
      <point x="354" y="596"/>
      <point x="354" y="633" type="curve" smooth="yes"/>
      <point x="354" y="704"/>
      <point x="305" y="752"/>
      <point x="231" y="752" type="curve" smooth="yes"/>
      <point x="152" y="752"/>
      <point x="89" y="697"/>
      <point x="89" y="613" type="curve" smooth="yes"/>
      <point x="89" y="544"/>
      <point x="140" y="494"/>
      <point x="213" y="494" type="curve"/>
      <point x="189" y="625" type="line"/>
    </contour>
  </outline>
</glyph>
<glyph name="quotesinglbase" format="2">
  <advance width="304"/>
  <unicode hex="201A"/>
  <outline>
    <contour>
      <point x="-52" y="-160" type="line"/>
      <point x="88" y="-160" type="line"/>
      <point x="206" y="13" type="line" smooth="yes"/>
      <point x="241" y="64"/>
      <point x="253" y="92"/>
      <point x="253" y="129" type="curve" smooth="yes"/>
      <point x="253" y="200"/>
      <point x="204" y="248"/>
      <point x="130" y="248" type="curve" smooth="yes"/>
      <point x="51" y="248"/>
      <point x="-12" y="193"/>
      <point x="-12" y="109" type="curve" smooth="yes"/>
      <point x="-12" y="40"/>
      <point x="39" y="-10"/>
      <point x="112" y="-10" type="curve"/>
      <point x="88" y="121" type="line"/>
    </contour>
  </outline>
</glyph>
<glyph name="bullet" format="2">
  <advance width="410"/>
  <unicode hex="2022"/>
  <outline>
    <contour>
      <point x="198" y="119" type="curve" smooth="yes"/>
      <point x="295" y="119"/>
      <point x="373" y="194"/>
      <point x="373" y="298" type="curve" smooth="yes"/>
      <point x="373" y="386"/>
      <point x="304" y="449"/>
      <point x="217" y="449" type="curve" smooth="yes"/>
      <point x="117" y="449"/>
      <point x="41" y="376"/>
      <point x="41" y="272" type="curve" smooth="yes"/>
      <point x="41" y="184"/>
      <point x="109" y="119"/>
    </contour>
  </outline>
</glyph>
<glyph name="fraction" format="2">
  <advance width="197"/>
  <unicode hex="2044"/>
  <outline>
    <contour>
      <point x="-280" y="0" type="line"/>
      <point x="-103" y="0" type="line"/>
      <point x="507" y="700" type="line"/>
      <point x="330" y="700" type="line"/>
    </contour>
  </outline>
</glyph>
<glyph name="commercialMinusSign" format="2">
  <advance width="661"/>
  <unicode hex="2052"/>
  <guideline x="155" y="446" angle="90"/>
  <guideline x="590" y="446" angle="90"/>
  <outline>
    <contour>
      <point x="61" y="0" type="line"/>
      <point x="226" y="0" type="line"/>
      <point x="631" y="700" type="line"/>
      <point x="466" y="700" type="line"/>
    </contour>
    <contour>
      <point x="479" y="0" type="curve" smooth="yes"/>
      <point x="546" y="0"/>
      <point x="601" y="52"/>
      <point x="601" y="120" type="curve" smooth="yes"/>
      <point x="601" y="181"/>
      <point x="556" y="218"/>
      <point x="497" y="218" type="curve" smooth="yes"/>
      <point x="430" y="218"/>
      <point x="375" y="169"/>
      <point x="375" y="101" type="curve" smooth="yes"/>
      <point x="375" y="40"/>
      <point x="420" y="0"/>
    </contour>
    <contour>
      <point x="195" y="482" type="curve" smooth="yes"/>
      <point x="262" y="482"/>
      <point x="317" y="534"/>
      <point x="317" y="602" type="curve" smooth="yes"/>
      <point x="317" y="663"/>
      <point x="272" y="700"/>
      <point x="213" y="700" type="curve" smooth="yes"/>
      <point x="146" y="700"/>
      <point x="91" y="651"/>
      <point x="91" y="583" type="curve" smooth="yes"/>
      <point x="91" y="522"/>
      <point x="136" y="482"/>
    </contour>
  </outline>
</glyph>
<glyph name="kip" format="2">
  <advance width="828"/>
  <unicode hex="20AD"/>
  <outline>
    <contour>
      <point x="32" y="284" type="line"/>
      <point x="775" y="284" type="line"/>
      <point x="801" y="416" type="line"/>
      <point x="58" y="416" type="line"/>
    </contour>
    <contour>
      <point x="65" y="0" type="line"/>
      <point x="297" y="0" type="line"/>
      <point x="437" y="700" type="line"/>
      <point x="205" y="700" type="line"/>
    </contour>
    <contour>
      <point x="533" y="0" type="line"/>
      <point x="798" y="0" type="line"/>
      <point x="610" y="350" type="line"/>
      <point x="344" y="350" type="line"/>
    </contour>
    <contour>
      <point x="657" y="700" type="line"/>
      <point x="336" y="350" type="line"/>
      <point x="618" y="350" type="line"/>
      <point x="938" y="700" type="line"/>
    </contour>
  </outline>
</glyph>
<glyph name="trademark" format="2">
  <advance width="1067"/>
  <unicode hex="2122"/>
  <outline>
    <contour>
      <point x="467" y="285" type="line"/>
      <point x="612" y="285" type="line"/>
      <point x="654" y="497" type="line"/>
      <point x="626" y="497" type="line"/>
      <point x="714" y="321" type="line"/>
      <point x="787" y="321" type="line"/>
      <point x="930" y="497" type="line"/>
      <point x="907" y="497" type="line"/>
      <point x="867" y="285" type="line"/>
      <point x="1012" y="285" type="line"/>
      <point x="1093" y="700" type="line"/>
      <point x="957" y="700" type="line"/>
      <point x="737" y="434" type="line"/>
      <point x="806" y="434" type="line"/>
      <point x="678" y="700" type="line"/>
      <point x="550" y="700" type="line"/>
    </contour>
    <contour>
      <point x="135" y="285" type="line"/>
      <point x="295" y="285" type="line"/>
      <point x="355" y="586" type="line"/>
      <point x="484" y="586" type="line"/>
      <point x="507" y="700" type="line"/>
      <point x="89" y="700" type="line"/>
      <point x="66" y="586" type="line"/>
      <point x="195" y="586" type="line"/>
    </contour>
  </outline>
</glyph>
<glyph name="southEastArrow" format="2">
  <advance width="600"/>
  <unicode hex="2198"/>
  <outline>
    <contour>
      <point x="437" y="498" type="line"/>
      <point x="362" y="223" type="line"/>
      <point x="86" y="148" type="line"/>
      <point x="202" y="32" type="line"/>
      <point x="490" y="95" type="line"/>
      <point x="552" y="383" type="line"/>
    </contour>
    <contour>
      <point x="182" y="525" type="line"/>
      <point x="60" y="403" type="line"/>
      <point x="320" y="143" type="line"/>
      <point x="442" y="264" type="line"/>
    </contour>
  </outline>
</glyph>
<glyph name="partialdiff" format="2">
  <advance width="700"/>
  <unicode hex="2202"/>
  <outline>
    <contour>
      <point x="283" y="-16" type="curve" smooth="yes"/>
      <point x="531" y="-16"/>
      <point x="687" y="189"/>
      <point x="687" y="437" type="curve" smooth="yes"/>
      <point x="687" y="637"/>
      <point x="550" y="758"/>
      <point x="340" y="758" type="curve" smooth="yes"/>
      <point x="281" y="758"/>
      <point x="221" y="752"/>
      <point x="176" y="737" type="curve"/>
      <point x="168" y="558" type="line"/>
      <point x="211" y="571"/>
      <point x="253" y="576"/>
      <point x="289" y="576" type="curve" smooth="yes"/>
      <point x="413" y="576"/>
      <point x="471" y="499"/>
      <point x="449" y="387" type="curve" smooth="yes"/>
      <point x="441" y="347"/>
      <point x="438" y="328"/>
      <point x="434" y="308" type="curve"/>
      <point x="495" y="335" type="line"/>
      <point x="468" y="414"/>
      <point x="405" y="453"/>
      <point x="307" y="453" type="curve" smooth="yes"/>
      <point x="144" y="453"/>
      <point x="23" y="345"/>
      <point x="23" y="194" type="curve" smooth="yes"/>
      <point x="23" y="72"/>
      <point x="121" y="-16"/>
    </contour>
    <contour>
      <point x="321" y="147" type="curve" smooth="yes"/>
      <point x="278" y="147"/>
      <point x="250" y="173"/>
      <point x="250" y="213" type="curve" smooth="yes"/>
      <point x="250" y="258"/>
      <point x="284" y="290"/>
      <point x="334" y="290" type="curve" smooth="yes"/>
      <point x="377" y="290"/>
      <point x="405" y="265"/>
      <point x="405" y="224" type="curve" smooth="yes"/>
      <point x="405" y="178"/>
      <point x="371" y="147"/>
    </contour>
  </outline>
</glyph>
<glyph name="notequal" format="2">
  <advance width="619"/>
  <unicode hex="2260"/>
  <outline>
    <contour>
      <point x="12" y="35" type="line"/>
      <point x="200" y="35" type="line"/>
      <point x="638" y="665" type="line"/>
      <point x="450" y="665" type="line"/>
    </contour>
    <contour>
      <point x="27" y="135" type="line"/>
      <point x="537" y="135" type="line"/>
      <point x="571" y="305" type="line"/>
      <point x="61" y="305" type="line"/>
    </contour>
    <contour>
      <point x="79" y="395" type="line"/>
      <point x="589" y="395" type="line"/>
      <point x="623" y="565" type="line"/>
      <point x="113" y="565" type="line"/>
    </contour>
  </outline>
</glyph>
<glyph name="greaterequal" format="2">
  <advance width="619"/>
  <unicode hex="2265"/>
  <outline>
    <contour>
      <point x="39" y="195" type="line"/>
      <point x="583" y="363" type="line"/>
      <point x="617" y="537" type="line"/>
      <point x="141" y="705" type="line"/>
      <point x="109" y="545" type="line"/>
      <point x="528" y="398" type="line"/>
      <point x="552" y="518" type="line"/>
      <point x="75" y="371" type="line"/>
    </contour>
    <contour>
      <point x="0" y="0" type="line"/>
      <point x="510" y="0" type="line"/>
      <point x="544" y="170" type="line"/>
      <point x="34" y="170" type="line"/>
    </contour>
  </outline>
</glyph>
<glyph name="whiteSquare" format="2">
  <advance width="600"/>
  <unicode hex="25A1"/>
  <outline>
    <contour>
      <point x="106" y="71" type="line"/>
      <point x="494" y="71" type="line"/>
      <point x="494" y="459" type="line"/>
      <point x="106" y="459" type="line"/>
    </contour>
    <contour>
      <point x="218" y="183" type="line"/>
      <point x="218" y="347" type="line"/>
      <point x="382" y="347" type="line"/>
      <point x="382" y="183" type="line"/>
    </contour>
  </outline>
</glyph>
<glyph name="blackDiamond" format="2">
  <advance width="600"/>
  <unicode hex="25C6"/>
  <outline>
    <contour>
      <point x="25" y="265" type="line"/>
      <point x="300" y="-9" type="line"/>
      <point x="574" y="265" type="line"/>
      <point x="300" y="540" type="line"/>
    </contour>
  </outline>
</glyph>
<glyph name="Saltillo" format="2">
  <advance width="342"/>
  <unicode hex="A78B"/>
  <outline>
    <contour>
      <point x="59" y="296" type="line"/>
      <point x="261" y="296" type="line"/>
      <point x="372" y="701" type="line"/>
      <point x="140" y="701" type="line"/>
    </contour>
  </outline>
</glyph>
<glyph name="AE.ss01" format="2">
  <advance width="1100"/>
  <anchor x="493" y="0" name="bottom"/>
  <anchor x="633" y="700" name="top"/>
  <outline>
    <contour>
      <point x="429" y="0" type="line"/>
      <point x="1011" y="0" type="line"/>
      <point x="1047" y="178" type="line"/>
      <point x="697" y="178" type="line"/>
      <point x="715" y="270" type="line"/>
      <point x="1011" y="270" type="line"/>
      <point x="1045" y="440" type="line"/>
      <point x="749" y="440" type="line"/>
      <point x="766" y="522" type="line"/>
      <point x="1103" y="522" type="line"/>
      <point x="1138" y="700" type="line"/>
      <point x="569" y="700" type="line"/>
    </contour>
    <contour>
      <point x="170" y="148" type="line"/>
      <point x="575" y="148" type="line"/>
      <point x="610" y="326" type="line"/>
      <point x="205" y="326" type="line"/>
    </contour>
    <contour>
      <point x="-8" y="0" type="line"/>
      <point x="228" y="0" type="line"/>
      <point x="300" y="361" type="line" smooth="yes"/>
      <point x="320" y="460"/>
      <point x="374" y="509"/>
      <point x="464" y="509" type="curve" smooth="yes"/>
      <point x="647" y="509" type="line"/>
      <point x="685" y="700" type="line"/>
      <point x="465" y="700" type="line" smooth="yes"/>
      <point x="245" y="700"/>
      <point x="111" y="595"/>
      <point x="69" y="385" type="curve" smooth="yes"/>
    </contour>
  </outline>
</glyph>
<glyph name="De-cy.ss01" format="2">
  <advance width="887"/>
  <outline>
    <contour>
      <point x="-66" y="-137" type="line"/>
      <point x="150" y="-137" type="line"/>
      <point x="177" y="0" type="line"/>
      <point x="599" y="0" type="line"/>
      <point x="572" y="-137" type="line"/>
      <point x="788" y="-137" type="line"/>
      <point x="852" y="183" type="line"/>
      <point x="-2" y="183" type="line"/>
    </contour>
    <contour>
      <point x="45" y="0" type="line"/>
      <point x="277" y="0" type="line"/>
      <point x="355" y="391" type="line" smooth="yes"/>
      <point x="374" y="486"/>
      <point x="420" y="525"/>
      <point x="488" y="525" type="curve" smooth="yes"/>
      <point x="560" y="525"/>
      <point x="595" y="480"/>
      <point x="575" y="381" type="curve" smooth="yes"/>
      <point x="499" y="0" type="line"/>
      <point x="735" y="0" type="line"/>
      <point x="808" y="365" type="line" smooth="yes"/>
      <point x="852" y="584"/>
      <point x="728" y="716"/>
      <point x="512" y="716" type="curve" smooth="yes"/>
      <point x="305" y="716"/>
      <point x="166" y="605"/>
      <point x="124" y="395" type="curve" smooth="yes"/>
    </contour>
  </outline>
</glyph>
<glyph name="Ef-cy.ss01" format="2">
  <advance width="991"/>
  <outline>
    <contour>
      <point x="470" y="-16" type="curve" smooth="yes"/>
      <point x="770" y="-16"/>
      <point x="983" y="150"/>
      <point x="983" y="382" type="curve" smooth="yes"/>
      <point x="983" y="587"/>
      <point x="816" y="716"/>
      <point x="551" y="716" type="curve" smooth="yes"/>
      <point x="251" y="716"/>
      <point x="38" y="550"/>
      <point x="38" y="318" type="curve" smooth="yes"/>
      <point x="38" y="113"/>
      <point x="205" y="-16"/>
    </contour>
    <contour>
      <point x="367" y="181" type="line"/>
      <point x="299" y="205"/>
      <point x="260" y="254"/>
      <point x="260" y="324" type="curve" smooth="yes"/>
      <point x="260" y="418"/>
      <point x="331" y="493"/>
      <point x="439" y="522" type="curve"/>
    </contour>
    <contour>
      <point x="584" y="178" type="curve"/>
      <point x="655" y="519" type="line"/>
      <point x="722" y="495"/>
      <point x="761" y="445"/>
      <point x="761" y="376" type="curve" smooth="yes"/>
      <point x="761" y="283"/>
      <point x="691" y="208"/>
    </contour>
  </outline>
</glyph>
<glyph name="Eogonek.ss01" format="2">
  <advance width="695"/>
  <outline>
    <contour>
      <point x="464" y="-240" type="curve" smooth="yes"/>
      <point x="507" y="-240"/>
      <point x="545" y="-230"/>
      <point x="572" y="-217" type="curve"/>
      <point x="563" y="-124" type="line"/>
      <point x="547" y="-131"/>
      <point x="525" y="-138"/>
      <point x="503" y="-138" type="curve" smooth="yes"/>
      <point x="475" y="-138"/>
      <point x="457" y="-122"/>
      <point x="457" y="-97" type="curve" smooth="yes"/>
      <point x="457" y="-58"/>
      <point x="493" y="-17"/>
      <point x="651" y="48" type="curve"/>
      <point x="601" y="216" type="line"/>
      <point x="543" y="185"/>
      <point x="462" y="164"/>
      <point x="383" y="164" type="curve" smooth="yes"/>
      <point x="288" y="164"/>
      <point x="252" y="183"/>
      <point x="252" y="215" type="curve" smooth="yes"/>
      <point x="252" y="248"/>
      <point x="285" y="266"/>
      <point x="330" y="266" type="curve" smooth="yes"/>
      <point x="561" y="266" type="line"/>
      <point x="596" y="440" type="line"/>
      <point x="404" y="440" type="line" smooth="yes"/>
      <point x="355" y="440"/>
      <point x="334" y="453"/>
      <point x="334" y="475" type="curve" smooth="yes"/>
      <point x="334" y="511"/>
      <point x="372" y="536"/>
      <point x="459" y="536" type="curve" smooth="yes"/>
      <point x="519" y="536"/>
      <point x="594" y="527"/>
      <point x="660" y="498" type="curve"/>
      <point x="735" y="667" type="line"/>
      <point x="676" y="697"/>
      <point x="583" y="716"/>
      <point x="475" y="716" type="curve" smooth="yes"/>
      <point x="246" y="716"/>
      <point x="98" y="620"/>
      <point x="98" y="471" type="curve" smooth="yes"/>
      <point x="98" y="400"/>
      <point x="154" y="335"/>
      <point x="277" y="335" type="curve"/>
      <point x="282" y="387" type="line"/>
      <point x="126" y="387"/>
      <point x="10" y="311"/>
      <point x="10" y="180" type="curve" smooth="yes"/>
      <point x="10" y="57"/>
      <point x="134" y="-16"/>
      <point x="345" y="-16" type="curve" smooth="yes"/>
      <point x="380" y="-16"/>
      <point x="415" y="-14"/>
      <point x="469" y="-7" type="curve"/>
      <point x="454" y="24" type="line"/>
      <point x="375" y="-10"/>
      <point x="318" y="-62"/>
      <point x="318" y="-132" type="curve" smooth="yes"/>
      <point x="318" y="-200"/>
      <point x="376" y="-240"/>
    </contour>
  </outline>
</glyph>
<glyph name="Er-cy.ss01" format="2">
  <advance width="739"/>
  <outline>
    <contour>
      <point x="-6" y="0" type="line"/>
      <point x="226" y="0" type="line"/>
      <point x="310" y="420" type="line" smooth="yes"/>
      <point x="324" y="489"/>
      <point x="361" y="521"/>
      <point x="426" y="521" type="curve" smooth="yes"/>
      <point x="483" y="521"/>
      <point x="508" y="497"/>
      <point x="508" y="445" type="curve" smooth="yes"/>
      <point x="508" y="371"/>
      <point x="458" y="325"/>
      <point x="380" y="325" type="curve" smooth="yes"/>
      <point x="337" y="325"/>
      <point x="292" y="340"/>
      <point x="273" y="360" type="curve"/>
      <point x="232" y="186" type="line"/>
      <point x="293" y="166"/>
      <point x="337" y="158"/>
      <point x="393" y="158" type="curve" smooth="yes"/>
      <point x="611" y="158"/>
      <point x="750" y="274"/>
      <point x="750" y="455" type="curve" smooth="yes"/>
      <point x="750" y="616"/>
      <point x="641" y="708"/>
      <point x="449" y="708" type="curve" smooth="yes"/>
      <point x="243" y="708"/>
      <point x="114" y="603"/>
      <point x="74" y="402" type="curve" smooth="yes"/>
    </contour>
  </outline>
</glyph>
<glyph name="G.ss01" format="2">
  <advance width="769"/>
  <anchor x="356" y="3" name="bottom"/>
  <anchor x="509" y="701" name="top"/>
  <outline>
    <contour>
      <point x="347" y="-16" type="curve" smooth="yes"/>
      <point x="468" y="-16"/>
      <point x="551" y="32"/>
      <point x="631" y="179" type="curve"/>
      <point x="548" y="231" type="line"/>
      <point x="510" y="197"/>
      <point x="468" y="171"/>
      <point x="412" y="171" type="curve" smooth="yes"/>
      <point x="328" y="171"/>
      <point x="279" y="225"/>
      <point x="279" y="312" type="curve" smooth="yes"/>
      <point x="279" y="437"/>
      <point x="357" y="525"/>
      <point x="480" y="525" type="curve" smooth="yes"/>
      <point x="546" y="525"/>
      <point x="595" y="506"/>
      <point x="640" y="448" type="curve"/>
      <point x="809" y="579" type="line"/>
      <point x="743" y="669"/>
      <point x="629" y="716"/>
      <point x="491" y="716" type="curve" smooth="yes"/>
      <point x="224" y="716"/>
      <point x="41" y="543"/>
      <point x="41" y="294" type="curve" smooth="yes"/>
      <point x="41" y="101"/>
      <point x="183" y="-16"/>
    </contour>
    <contour>
      <point x="518" y="0" type="line"/>
      <point x="670" y="0" type="line"/>
      <point x="744" y="369" type="line"/>
      <point x="539" y="369" type="line"/>
      <point x="488" y="115" type="line"/>
      <point x="536" y="90" type="line"/>
    </contour>
  </outline>
</glyph>
<glyph name="I.ss01" format="2">
  <advance width="516"/>
  <anchor x="203" y="0" name="bottom"/>
  <anchor x="321" y="0" name="ogonek"/>
  <anchor x="343" y="700" name="top"/>
  <anchor x="65" y="700" name="topleft"/>
  <outline>
    <contour>
      <point x="89" y="20" type="line"/>
      <point x="325" y="20" type="line"/>
      <point x="457" y="681" type="line"/>
      <point x="221" y="681" type="line"/>
    </contour>
    <contour>
      <point x="-20" y="0" type="line"/>
      <point x="426" y="0" type="line"/>
      <point x="462" y="178" type="line"/>
      <point x="16" y="178" type="line"/>
    </contour>
    <contour>
      <point x="84" y="522" type="line"/>
      <point x="530" y="522" type="line"/>
      <point x="566" y="700" type="line"/>
      <point x="120" y="700" type="line"/>
    </contour>
  </outline>
</glyph>
<glyph name="Q.ss01" format="2">
  <advance width="848"/>
  <anchor x="510" y="700" name="top"/>
  <outline>
    <contour>
      <point x="396" y="-16" type="curve" smooth="yes"/>
      <point x="653" y="-16"/>
      <point x="837" y="156"/>
      <point x="837" y="403" type="curve" smooth="yes"/>
      <point x="837" y="587"/>
      <point x="700" y="716"/>
      <point x="482" y="716" type="curve" smooth="yes"/>
      <point x="225" y="716"/>
      <point x="41" y="544"/>
      <point x="41" y="297" type="curve" smooth="yes"/>
      <point x="41" y="113"/>
      <point x="178" y="-16"/>
    </contour>
    <contour>
      <point x="224" y="-135" type="line"/>
      <point x="460" y="-135" type="line"/>
      <point x="492" y="25" type="line"/>
      <point x="495" y="92" type="line"/>
      <point x="540" y="315" type="line"/>
      <point x="323" y="315" type="line"/>
      <point x="278" y="92" type="line"/>
      <point x="256" y="25" type="line"/>
    </contour>
    <contour>
      <point x="416" y="175" type="curve" smooth="yes"/>
      <point x="330" y="175"/>
      <point x="279" y="230"/>
      <point x="279" y="311" type="curve" smooth="yes"/>
      <point x="279" y="426"/>
      <point x="346" y="525"/>
      <point x="462" y="525" type="curve" smooth="yes"/>
      <point x="548" y="525"/>
      <point x="599" y="470"/>
      <point x="599" y="389" type="curve" smooth="yes"/>
      <point x="599" y="274"/>
      <point x="532" y="175"/>
    </contour>
  </outline>
</glyph>
<glyph name="Semisoftsign-cy.ss01" format="2">
  <advance width="786"/>
  <anchor x="287" y="580" name="center"/>
  <outline>
    <contour>
      <point x="67" y="546" type="line"/>
      <point x="604" y="546" type="line"/>
      <point x="630" y="676" type="line"/>
      <point x="93" y="676" type="line"/>
    </contour>
    <contour>
      <point x="381" y="-16" type="curve" smooth="yes"/>
      <point x="606" y="-16"/>
      <point x="762" y="99"/>
      <point x="762" y="280" type="curve" smooth="yes"/>
      <point x="762" y="419"/>
      <point x="674" y="497"/>
      <point x="516" y="497" type="curve" smooth="yes"/>
      <point x="463" y="497"/>
      <point x="403" y="488"/>
      <point x="337" y="470" type="curve"/>
      <point x="310" y="299" type="line"/>
      <point x="363" y="319"/>
      <point x="404" y="328"/>
      <point x="438" y="328" type="curve" smooth="yes"/>
      <point x="492" y="328"/>
      <point x="520" y="303"/>
      <point x="520" y="256" type="curve" smooth="yes"/>
      <point x="520" y="198"/>
      <point x="475" y="159"/>
      <point x="407" y="159" type="curve" smooth="yes"/>
      <point x="342" y="159"/>
      <point x="315" y="195"/>
      <point x="328" y="261" type="curve" smooth="yes"/>
      <point x="423" y="742" type="line"/>
      <point x="191" y="742" type="line"/>
      <point x="99" y="278" type="line" smooth="yes"/>
      <point x="63" y="95"/>
      <point x="159" y="-16"/>
    </contour>
  </outline>
</glyph>
<glyph name="T.ss01" format="2">
  <advance width="684"/>
  <anchor x="287" y="0" name="bottom"/>
  <anchor x="169" y="0" name="bottomleft"/>
  <anchor x="346" y="300" name="center"/>
  <anchor x="432" y="701" name="top"/>
  <outline>
    <contour>
      <point x="102" y="458" type="line"/>
      <point x="182" y="504"/>
      <point x="275" y="528"/>
      <point x="373" y="528" type="curve" smooth="yes"/>
      <point x="489" y="528"/>
      <point x="575" y="503"/>
      <point x="665" y="454" type="curve"/>
      <point x="766" y="623" type="line"/>
      <point x="674" y="682"/>
      <point x="546" y="716"/>
      <point x="410" y="716" type="curve" smooth="yes"/>
      <point x="282" y="716"/>
      <point x="139" y="686"/>
      <point x="44" y="628" type="curve"/>
    </contour>
    <contour>
      <point x="169" y="0" type="line"/>
      <point x="405" y="0" type="line"/>
      <point x="526" y="606" type="line"/>
      <point x="290" y="606" type="line"/>
    </contour>
  </outline>
</glyph>
<glyph name="T_h" format="2">
  <advance width="1292"/>
  <outline>
    <contour>
      <point x="154" y="0" type="line"/>
      <point x="390" y="0" type="line"/>
      <point x="493" y="517" type="line"/>
      <point x="698" y="517" type="line"/>
      <point x="735" y="700" type="line"/>
      <point x="89" y="700" type="line"/>
      <point x="52" y="517" type="line"/>
      <point x="257" y="517" type="line"/>
    </contour>
    <contour>
      <point x="1060" y="557" type="curve" smooth="yes"/>
      <point x="985" y="557"/>
      <point x="902" y="520"/>
      <point x="850" y="436" type="curve"/>
      <point x="890" y="396" type="line"/>
      <point x="951" y="700" type="line"/>
      <point x="725" y="700" type="line"/>
      <point x="585" y="0" type="line"/>
      <point x="811" y="0" type="line"/>
      <point x="864" y="263" type="line" smooth="yes"/>
      <point x="878" y="334"/>
      <point x="914" y="367"/>
      <point x="965" y="367" type="curve" smooth="yes"/>
      <point x="1013" y="367"/>
      <point x="1030" y="335"/>
      <point x="1018" y="275" type="curve" smooth="yes"/>
      <point x="963" y="0" type="line"/>
      <point x="1189" y="0" type="line"/>
      <point x="1249" y="302" type="line" smooth="yes"/>
      <point x="1283" y="472"/>
      <point x="1195" y="557"/>
    </contour>
  </outline>
</glyph>
<glyph name="Yat-cy.ss01" format="2">
  <advance width="866"/>
  <anchor x="367" y="580" name="center"/>
  <outline>
    <contour>
      <point x="67" y="546" type="line"/>
      <point x="684" y="546" type="line"/>
      <point x="710" y="676" type="line"/>
      <point x="93" y="676" type="line"/>
    </contour>
    <contour>
      <point x="461" y="-16" type="curve" smooth="yes"/>
      <point x="687" y="-16"/>
      <point x="842" y="99"/>
      <point x="842" y="281" type="curve" smooth="yes"/>
      <point x="842" y="419"/>
      <point x="754" y="497"/>
      <point x="596" y="497" type="curve" smooth="yes"/>
      <point x="543" y="497"/>
      <point x="483" y="488"/>
      <point x="417" y="470" type="curve"/>
      <point x="390" y="299" type="line"/>
      <point x="443" y="319"/>
      <point x="484" y="328"/>
      <point x="518" y="328" type="curve" smooth="yes"/>
      <point x="572" y="328"/>
      <point x="600" y="303"/>
      <point x="600" y="256" type="curve" smooth="yes"/>
      <point x="600" y="198"/>
      <point x="555" y="159"/>
      <point x="487" y="159" type="curve" smooth="yes"/>
      <point x="422" y="159"/>
      <point x="395" y="195"/>
      <point x="408" y="261" type="curve" smooth="yes"/>
      <point x="504" y="742" type="line"/>
      <point x="272" y="742" type="line"/>
      <point x="179" y="278" type="line" smooth="yes"/>
      <point x="142" y="95"/>
      <point x="239" y="-16"/>
    </contour>
  </outline>
</glyph>
<glyph name="Yeru-cy.ss01" format="2">
  <advance width="1069"/>
  <anchor x="619" y="700" name="top"/>
  <outline>
    <contour>
      <point x="720" y="0" type="line"/>
      <point x="952" y="0" type="line"/>
      <point x="1092" y="700" type="line"/>
      <point x="860" y="700" type="line"/>
    </contour>
    <contour>
      <point x="331" y="-16" type="curve" smooth="yes"/>
      <point x="557" y="-16"/>
      <point x="712" y="99"/>
      <point x="712" y="281" type="curve" smooth="yes"/>
      <point x="712" y="419"/>
      <point x="624" y="497"/>
      <point x="466" y="497" type="curve" smooth="yes"/>
      <point x="413" y="497"/>
      <point x="353" y="488"/>
      <point x="287" y="470" type="curve"/>
      <point x="260" y="299" type="line"/>
      <point x="313" y="319"/>
      <point x="354" y="328"/>
      <point x="388" y="328" type="curve" smooth="yes"/>
      <point x="442" y="328"/>
      <point x="470" y="305"/>
      <point x="470" y="258" type="curve" smooth="yes"/>
      <point x="470" y="198"/>
      <point x="425" y="159"/>
      <point x="357" y="159" type="curve" smooth="yes"/>
      <point x="292" y="159"/>
      <point x="265" y="195"/>
      <point x="278" y="261" type="curve" smooth="yes"/>
      <point x="365" y="700" type="line"/>
      <point x="133" y="700" type="line"/>
      <point x="49" y="278" type="line" smooth="yes"/>
      <point x="13" y="95"/>
      <point x="108" y="-16"/>
    </contour>
  </outline>
</glyph>
<glyph name=".notdef" format="2">
  <advance width="587"/>
  <outline>
    <contour>
      <point x="-15" y="0" type="line"/>
      <point x="492" y="0" type="line"/>
      <point x="632" y="700" type="line"/>
      <point x="125" y="700" type="line"/>
    </contour>
    <contour>
      <point x="79" y="70" type="line"/>
      <point x="191" y="630" type="line"/>
      <point x="538" y="630" type="line"/>
      <point x="426" y="70" type="line"/>
    </contour>
  </outline>
</glyph>
<glyph name="acutecomb.loclVIET" format="2">
  <anchor x="355" y="547" name="_top"/>
  <anchor x="392" y="730" name="top"/>
  <outline>
    <contour>
      <point x="260" y="607" type="line"/>
      <point x="414" y="607" type="line"/>
      <point x="595" y="737" type="line"/>
      <point x="376" y="737" type="line"/>
    </contour>
  </outline>
</glyph>
<glyph name="ae.sc.ss01" format="2">
  <advance width="967"/>
  <anchor x="427" y="0" name="bottom"/>
  <anchor x="543" y="582" name="top"/>
  <outline>
    <contour>
      <point x="365" y="0" type="line"/>
      <point x="874" y="0" type="line"/>
      <point x="907" y="165" type="line"/>
      <point x="622" y="165" type="line"/>
      <point x="632" y="217" type="line"/>
      <point x="871" y="217" type="line"/>
      <point x="903" y="374" type="line"/>
      <point x="664" y="374" type="line"/>
      <point x="672" y="417" type="line"/>
      <point x="946" y="417" type="line"/>
      <point x="979" y="582" type="line"/>
      <point x="481" y="582" type="line"/>
    </contour>
    <contour>
      <point x="148" y="113" type="line"/>
      <point x="495" y="113" type="line"/>
      <point x="528" y="278" type="line"/>
      <point x="181" y="278" type="line"/>
    </contour>
    <contour>
      <point x="-11" y="0" type="line"/>
      <point x="208" y="0" type="line"/>
      <point x="267" y="295" type="line" smooth="yes"/>
      <point x="282" y="369"/>
      <point x="323" y="405"/>
      <point x="396" y="405" type="curve" smooth="yes"/>
      <point x="554" y="405" type="line"/>
      <point x="589" y="582" type="line"/>
      <point x="395" y="582" type="line" smooth="yes"/>
      <point x="202" y="582"/>
      <point x="88" y="496"/>
      <point x="53" y="319" type="curve" smooth="yes"/>
    </contour>
  </outline>
</glyph>
<glyph name="ae.ss01" format="2">
  <advance width="990"/>
  <anchor x="529" y="547" name="top"/>
  <outline>
    <contour>
      <point x="225" y="-10" type="curve" smooth="yes"/>
      <point x="345" y="-10"/>
      <point x="424" y="21"/>
      <point x="499" y="155" type="curve"/>
      <point x="395" y="155" type="line"/>
      <point x="429" y="40"/>
      <point x="545" y="-10"/>
      <point x="666" y="-10" type="curve" smooth="yes"/>
      <point x="745" y="-10"/>
      <point x="828" y="7"/>
      <point x="904" y="58" type="curve"/>
      <point x="808" y="195" type="line"/>
      <point x="773" y="169"/>
      <point x="733" y="157"/>
      <point x="693" y="157" type="curve" smooth="yes"/>
      <point x="619" y="157"/>
      <point x="581" y="183"/>
      <point x="581" y="251" type="curve" smooth="yes"/>
      <point x="581" y="327"/>
      <point x="609" y="403"/>
      <point x="693" y="403" type="curve" smooth="yes"/>
      <point x="747" y="403"/>
      <point x="784" y="364"/>
      <point x="769" y="301" type="curve"/>
      <point x="860" y="364" type="line"/>
      <point x="559" y="308" type="line"/>
      <point x="537" y="194" type="line"/>
      <point x="978" y="275" type="line"/>
      <point x="998" y="461"/>
      <point x="872" y="557"/>
      <point x="705" y="557" type="curve" smooth="yes"/>
      <point x="615" y="557"/>
      <point x="528" y="520"/>
      <point x="465" y="451" type="curve"/>
      <point x="554" y="451" type="line"/>
      <point x="512" y="524"/>
      <point x="438" y="557"/>
      <point x="311" y="557" type="curve" smooth="yes"/>
      <point x="238" y="557"/>
      <point x="143" y="541"/>
      <point x="80" y="508" type="curve"/>
      <point x="134" y="359" type="line"/>
      <point x="171" y="377"/>
      <point x="223" y="389"/>
      <point x="267" y="389" type="curve" smooth="yes"/>
      <point x="337" y="389"/>
      <point x="374" y="360"/>
      <point x="364" y="307" type="curve" smooth="yes"/>
      <point x="343" y="200" type="line" smooth="yes"/>
      <point x="333" y="147"/>
      <point x="309" y="124"/>
      <point x="270" y="124" type="curve" smooth="yes"/>
      <point x="237" y="124"/>
      <point x="216" y="143"/>
      <point x="216" y="168" type="curve" smooth="yes"/>
      <point x="216" y="200"/>
      <point x="242" y="219"/>
      <point x="286" y="219" type="curve" smooth="yes"/>
      <point x="363" y="219" type="line"/>
      <point x="385" y="328" type="line"/>
      <point x="263" y="328" type="line" smooth="yes"/>
      <point x="97" y="328"/>
      <point x="-2" y="264"/>
      <point x="-2" y="150" type="curve" smooth="yes"/>
      <point x="-2" y="60"/>
      <point x="84" y="-10"/>
    </contour>
  </outline>
</glyph>
<glyph name="aogonek.ss01" format="2">
  <advance width="761"/>
  <anchor x="421" y="547" name="top"/>
  <outline>
    <contour>
      <point x="245" y="-10" type="curve" smooth="yes"/>
      <point x="378" y="-10"/>
      <point x="464" y="97"/>
      <point x="493" y="274" type="curve" smooth="yes"/>
      <point x="527" y="489"/>
      <point x="438" y="557"/>
      <point x="311" y="557" type="curve" smooth="yes"/>
      <point x="154" y="557"/>
      <point x="20" y="423"/>
      <point x="20" y="243" type="curve" smooth="yes"/>
      <point x="20" y="80"/>
      <point x="136" y="-10"/>
    </contour>
    <contour>
      <point x="330" y="168" type="curve" smooth="yes"/>
      <point x="279" y="168"/>
      <point x="249" y="203"/>
      <point x="249" y="254" type="curve" smooth="yes"/>
      <point x="249" y="330"/>
      <point x="289" y="379"/>
      <point x="348" y="379" type="curve" smooth="yes"/>
      <point x="399" y="379"/>
      <point x="429" y="344"/>
      <point x="429" y="293" type="curve" smooth="yes"/>
      <point x="429" y="217"/>
      <point x="389" y="168"/>
    </contour>
    <contour>
      <point x="537" y="-240" type="curve" smooth="yes"/>
      <point x="580" y="-240"/>
      <point x="618" y="-230"/>
      <point x="645" y="-217" type="curve"/>
      <point x="636" y="-124" type="line"/>
      <point x="620" y="-131"/>
      <point x="598" y="-138"/>
      <point x="576" y="-138" type="curve" smooth="yes"/>
      <point x="548" y="-138"/>
      <point x="530" y="-122"/>
      <point x="530" y="-97" type="curve" smooth="yes"/>
      <point x="530" y="-65"/>
      <point x="560" y="-27"/>
      <point x="663" y="-4" type="curve"/>
      <point x="674" y="-2"/>
      <point x="685" y="1"/>
      <point x="697" y="4" type="curve"/>
      <point x="721" y="169" type="line"/>
      <point x="711" y="164"/>
      <point x="695" y="161"/>
      <point x="682" y="161" type="curve" smooth="yes"/>
      <point x="651" y="161"/>
      <point x="631" y="176"/>
      <point x="640" y="222" type="curve" smooth="yes"/>
      <point x="705" y="547" type="line"/>
      <point x="479" y="547" type="line"/>
      <point x="464" y="472" type="line"/>
      <point x="435" y="274" type="line"/>
      <point x="422" y="202" type="line"/>
      <point x="416" y="172" type="line" smooth="yes"/>
      <point x="397" y="77"/>
      <point x="452" y="-5"/>
      <point x="583" y="-9" type="curve"/>
      <point x="574" y="42" type="line"/>
      <point x="472" y="9"/>
      <point x="391" y="-49"/>
      <point x="391" y="-132" type="curve" smooth="yes"/>
      <point x="391" y="-200"/>
      <point x="449" y="-240"/>
    </contour>
  </outline>
</glyph>
<glyph name="be-cy.loclSRB" format="2">
  <advance width="652"/>
  <guideline x="109" y="510" angle="90"/>
  <guideline x="729" y="510" angle="90"/>
  <outline>
    <contour>
      <point x="286" y="-16" type="curve" smooth="yes"/>
      <point x="483" y="-16"/>
      <point x="632" y="106"/>
      <point x="632" y="267" type="curve" smooth="yes"/>
      <point x="632" y="352"/>
      <point x="584" y="409"/>
      <point x="464" y="465" type="curve" smooth="yes"/>
      <point x="350" y="519"/>
      <point x="340" y="525"/>
      <point x="340" y="545" type="curve" smooth="yes"/>
      <point x="340" y="566"/>
      <point x="351" y="573"/>
      <point x="383" y="573" type="curve" smooth="yes"/>
      <point x="633" y="573" type="line"/>
      <point x="667" y="743" type="line"/>
      <point x="321" y="742" type="line" smooth="yes"/>
      <point x="208" y="742"/>
      <point x="132" y="681"/>
      <point x="132" y="590" type="curve" smooth="yes"/>
      <point x="132" y="510"/>
      <point x="191" y="443"/>
      <point x="295" y="404" type="curve"/>
      <point x="285" y="431" type="line"/>
      <point x="129" y="442"/>
      <point x="1" y="337"/>
      <point x="1" y="199" type="curve" smooth="yes"/>
      <point x="1" y="72"/>
      <point x="118" y="-16"/>
    </contour>
    <contour>
      <point x="300" y="151" type="curve" smooth="yes"/>
      <point x="255" y="151"/>
      <point x="227" y="176"/>
      <point x="227" y="218" type="curve" smooth="yes"/>
      <point x="227" y="271"/>
      <point x="273" y="314"/>
      <point x="331" y="314" type="curve" smooth="yes"/>
      <point x="376" y="314"/>
      <point x="405" y="288"/>
      <point x="405" y="246" type="curve" smooth="yes"/>
      <point x="405" y="192"/>
      <point x="359" y="151"/>
    </contour>
  </outline>
</glyph>
<glyph name="brevecomb-cy.case" format="2">
  <guideline x="366" y="748" angle="0"/>
  <guideline x="610" y="917" angle="0"/>
  <anchor x="336" y="700" name="_top"/>
  <outline>
    <contour>
      <point x="345" y="736" type="curve" smooth="yes"/>
      <point x="491" y="736"/>
      <point x="563" y="788"/>
      <point x="582" y="911" type="curve"/>
      <point x="432" y="911" type="line"/>
      <point x="425" y="864"/>
      <point x="401" y="845"/>
      <point x="356" y="845" type="curve" smooth="yes"/>
      <point x="310" y="845"/>
      <point x="289" y="866"/>
      <point x="296" y="911" type="curve"/>
      <point x="150" y="911" type="line"/>
      <point x="132" y="792"/>
      <point x="195" y="736"/>
    </contour>
  </outline>
</glyph>
<glyph name="brevecomb.loclVIET" format="2">
  <anchor x="355" y="547" name="_top"/>
  <anchor x="389" y="715" name="top"/>
  <outline>
    <contour>
      <point x="380" y="597" type="curve" smooth="yes"/>
      <point x="497" y="597"/>
      <point x="584" y="651"/>
      <point x="602" y="737" type="curve"/>
      <point x="471" y="737" type="line"/>
      <point x="464" y="712"/>
      <point x="433" y="695"/>
      <point x="387" y="695" type="curve" smooth="yes"/>
      <point x="341" y="695"/>
      <point x="308" y="712"/>
      <point x="307" y="737" type="curve"/>
      <point x="184" y="737" type="line"/>
      <point x="178" y="651"/>
      <point x="257" y="597"/>
    </contour>
  </outline>
</glyph>
<glyph name="caroncomb.loclVIET" format="2">
  <anchor x="355" y="547" name="_top"/>
  <anchor x="387" y="707" name="top"/>
  <outline>
    <contour>
      <point x="272" y="607" type="line"/>
      <point x="462" y="607" type="line"/>
      <point x="611" y="737" type="line"/>
      <point x="468" y="737" type="line"/>
      <point x="315" y="637" type="line"/>
      <point x="423" y="637" type="line"/>
      <point x="300" y="737" type="line"/>
      <point x="163" y="737" type="line"/>
    </contour>
  </outline>
</glyph>
<glyph name="circumflexcomb.loclVIET" format="2">
  <anchor x="355" y="547" name="_top"/>
  <anchor x="390" y="722" name="top"/>
  <outline>
    <contour>
      <point x="143" y="607" type="line"/>
      <point x="286" y="607" type="line"/>
      <point x="439" y="707" type="line"/>
      <point x="331" y="707" type="line"/>
      <point x="454" y="607" type="line"/>
      <point x="591" y="607" type="line"/>
      <point x="482" y="737" type="line"/>
      <point x="292" y="737" type="line"/>
    </contour>
  </outline>
</glyph>
<glyph name="descTail-cy.case" format="2">
  <advance width="378"/>
  <anchor x="-24" y="0" name="_bottomleft"/>
  <outline>
    <contour>
      <point x="11" y="-137" type="line"/>
      <point x="195" y="-137" type="line"/>
      <point x="349" y="183" type="line"/>
      <point x="16" y="183" type="line"/>
      <point x="-24" y="0" type="line"/>
      <point x="147" y="0" type="line"/>
      <point x="77" y="51" type="line"/>
    </contour>
  </outline>
</glyph>
<glyph name="descender-cy.case" format="2">
  <advance width="405"/>
  <anchor x="-24" y="0" name="_bottomleft"/>
  <outline>
    <contour>
      <point x="54" y="-137" type="line"/>
      <point x="270" y="-137" type="line"/>
      <point x="334" y="183" type="line"/>
      <point x="14" y="183" type="line"/>
      <point x="-24" y="0" type="line"/>
      <point x="133" y="0" type="line"/>
      <point x="92" y="51" type="line"/>
    </contour>
  </outline>
</glyph>
<glyph name="descender-cy.short" format="2">
  <advance width="358"/>
  <anchor x="-19" y="0" name="_bottomleft"/>
  <outline>
    <contour>
      <point x="28" y="-102" type="line"/>
      <point x="231" y="-102" type="line"/>
      <point x="285" y="173" type="line"/>
      <point x="15" y="173" type="line"/>
      <point x="-19" y="0" type="line"/>
      <point x="96" y="0" type="line"/>
      <point x="57" y="47" type="line"/>
    </contour>
  </outline>
</glyph>
<glyph name="dieresiscomb.loclVIET" format="2">
  <anchor x="355" y="547" name="_top"/>
  <anchor x="392" y="730" name="top"/>
  <outline>
    <contour>
      <point x="482" y="599" type="curve" smooth="yes"/>
      <point x="530" y="599"/>
      <point x="573" y="634"/>
      <point x="573" y="690" type="curve" smooth="yes"/>
      <point x="573" y="736"/>
      <point x="541" y="766"/>
      <point x="494" y="766" type="curve" smooth="yes"/>
      <point x="446" y="766"/>
      <point x="403" y="730"/>
      <point x="403" y="674" type="curve" smooth="yes"/>
      <point x="403" y="628"/>
      <point x="435" y="599"/>
    </contour>
    <contour>
      <point x="270" y="599" type="curve" smooth="yes"/>
      <point x="318" y="599"/>
      <point x="361" y="634"/>
      <point x="361" y="690" type="curve" smooth="yes"/>
      <point x="361" y="736"/>
      <point x="329" y="766"/>
      <point x="282" y="766" type="curve" smooth="yes"/>
      <point x="234" y="766"/>
      <point x="191" y="730"/>
      <point x="191" y="674" type="curve" smooth="yes"/>
      <point x="191" y="628"/>
      <point x="223" y="599"/>
    </contour>
  </outline>
</glyph>
<glyph name="e.sc.ss01" format="2">
  <advance width="606"/>
  <anchor x="269" y="0" name="bottom"/>
  <anchor x="503" y="0" name="ogonek"/>
  <anchor x="385" y="582" name="top"/>
  <anchor x="49" y="582" name="topleft"/>
  <outline>
    <contour>
      <point x="294" y="-15" type="curve" smooth="yes"/>
      <point x="389" y="-15"/>
      <point x="490" y="5"/>
      <point x="557" y="35" type="curve"/>
      <point x="510" y="193" type="line"/>
      <point x="460" y="169"/>
      <point x="394" y="152"/>
      <point x="331" y="152" type="curve" smooth="yes"/>
      <point x="257" y="152"/>
      <point x="232" y="168"/>
      <point x="232" y="188" type="curve" smooth="yes"/>
      <point x="232" y="205"/>
      <point x="248" y="214"/>
      <point x="273" y="214" type="curve" smooth="yes"/>
      <point x="478" y="214" type="line"/>
      <point x="509" y="372" type="line"/>
      <point x="341" y="372" type="line" smooth="yes"/>
      <point x="312" y="372"/>
      <point x="299" y="379"/>
      <point x="299" y="394" type="curve" smooth="yes"/>
      <point x="299" y="413"/>
      <point x="323" y="430"/>
      <point x="387" y="430" type="curve" smooth="yes"/>
      <point x="435" y="430"/>
      <point x="500" y="421"/>
      <point x="557" y="398" type="curve"/>
      <point x="629" y="557" type="line"/>
      <point x="579" y="581"/>
      <point x="498" y="597"/>
      <point x="403" y="597" type="curve" smooth="yes"/>
      <point x="200" y="597"/>
      <point x="69" y="515"/>
      <point x="69" y="389" type="curve" smooth="yes"/>
      <point x="69" y="332"/>
      <point x="115" y="277"/>
      <point x="222" y="277" type="curve"/>
      <point x="227" y="325" type="line"/>
      <point x="96" y="325"/>
      <point x="-4" y="262"/>
      <point x="-4" y="152" type="curve" smooth="yes"/>
      <point x="-4" y="47"/>
      <point x="106" y="-15"/>
    </contour>
  </outline>
</glyph>
<glyph name="el-cy.loclBGR" format="2">
  <advance width="668"/>
  <anchor x="279" y="0" name="bottom"/>
  <anchor x="388" y="547" name="top"/>
  <outline>
    <contour>
      <point x="505" y="547" type="line"/>
      <point x="271" y="547" type="line"/>
      <point x="-58" y="0" type="line"/>
      <point x="165" y="0" type="line"/>
      <point x="428" y="445" type="line"/>
      <point x="311" y="445" type="line"/>
      <point x="393" y="0" type="line"/>
      <point x="616" y="0" type="line"/>
    </contour>
  </outline>
</glyph>
<glyph name="eng.sc.ss01" format="2">
  <advance width="701"/>
  <outline>
    <contour>
      <point x="318" y="-170" type="curve" smooth="yes"/>
      <point x="469" y="-170"/>
      <point x="575" y="-120"/>
      <point x="617" y="94" type="curve" smooth="yes"/>
      <point x="661" y="316" type="line" smooth="yes"/>
      <point x="696" y="493"/>
      <point x="620" y="597"/>
      <point x="479" y="597" type="curve" smooth="yes"/>
      <point x="404" y="597"/>
      <point x="334" y="560"/>
      <point x="288" y="490" type="curve"/>
      <point x="310" y="447" type="line"/>
      <point x="337" y="582" type="line"/>
      <point x="114" y="582" type="line"/>
      <point x="-2" y="0" type="line"/>
      <point x="228" y="0" type="line"/>
      <point x="292" y="320" type="line" smooth="yes"/>
      <point x="307" y="393"/>
      <point x="344" y="417"/>
      <point x="383" y="417" type="curve" smooth="yes"/>
      <point x="427" y="417"/>
      <point x="445" y="385"/>
      <point x="432" y="321" type="curve" smooth="yes"/>
      <point x="381" y="64" type="line" smooth="yes"/>
      <point x="372" y="17"/>
      <point x="354" y="3"/>
      <point x="322" y="3" type="curve" smooth="yes"/>
      <point x="305" y="3"/>
      <point x="287" y="7"/>
      <point x="268" y="16" type="curve"/>
      <point x="151" y="-129" type="line"/>
      <point x="197" y="-156"/>
      <point x="254" y="-170"/>
    </contour>
  </outline>
</glyph>
<glyph name="eogonek.ss01" format="2">
  <advance width="642"/>
  <anchor x="385" y="547" name="top"/>
  <outline>
    <contour>
      <point x="377" y="-240" type="curve" smooth="yes"/>
      <point x="419" y="-240"/>
      <point x="457" y="-230"/>
      <point x="483" y="-217" type="curve"/>
      <point x="474" y="-124" type="line"/>
      <point x="459" y="-131"/>
      <point x="435" y="-138"/>
      <point x="416" y="-138" type="curve" smooth="yes"/>
      <point x="388" y="-138"/>
      <point x="370" y="-122"/>
      <point x="370" y="-97" type="curve" smooth="yes"/>
      <point x="370" y="-49"/>
      <point x="424" y="-17"/>
      <point x="496" y="22" type="curve" smooth="yes"/>
      <point x="515" y="32"/>
      <point x="543" y="46"/>
      <point x="560" y="58" type="curve"/>
      <point x="466" y="195" type="line"/>
      <point x="432" y="169"/>
      <point x="389" y="157"/>
      <point x="350" y="157" type="curve" smooth="yes"/>
      <point x="277" y="157"/>
      <point x="239" y="183"/>
      <point x="239" y="251" type="curve" smooth="yes"/>
      <point x="239" y="327"/>
      <point x="267" y="403"/>
      <point x="349" y="403" type="curve" smooth="yes"/>
      <point x="404" y="403"/>
      <point x="442" y="364"/>
      <point x="427" y="301" type="curve"/>
      <point x="517" y="364" type="line"/>
      <point x="219" y="308" type="line"/>
      <point x="197" y="194" type="line"/>
      <point x="635" y="275" type="line"/>
      <point x="655" y="461"/>
      <point x="528" y="557"/>
      <point x="360" y="557" type="curve" smooth="yes"/>
      <point x="156" y="557"/>
      <point x="20" y="423"/>
      <point x="20" y="243" type="curve" smooth="yes"/>
      <point x="20" y="88"/>
      <point x="142" y="-10"/>
      <point x="322" y="-10" type="curve" smooth="yes"/>
      <point x="346" y="-10"/>
      <point x="379" y="-8"/>
      <point x="416" y="0" type="curve"/>
      <point x="373" y="24" type="line"/>
      <point x="299" y="1"/>
      <point x="234" y="-64"/>
      <point x="234" y="-132" type="curve" smooth="yes"/>
      <point x="234" y="-200"/>
      <point x="291" y="-240"/>
    </contour>
  </outline>
</glyph>
<glyph name="exclam.sc" format="2">
  <advance width="314"/>
  <outline>
    <contour>
      <point x="62" y="248" type="line"/>
      <point x="242" y="248" type="line"/>
      <point x="348" y="582" type="line"/>
      <point x="88" y="582" type="line"/>
    </contour>
    <contour>
      <point x="115" y="-10" type="curve" smooth="yes"/>
      <point x="200" y="-10"/>
      <point x="254" y="47"/>
      <point x="254" y="109" type="curve" smooth="yes"/>
      <point x="254" y="162"/>
      <point x="209" y="208"/>
      <point x="129" y="208" type="curve" smooth="yes"/>
      <point x="44" y="208"/>
      <point x="-10" y="155"/>
      <point x="-10" y="91" type="curve" smooth="yes"/>
      <point x="-10" y="39"/>
      <point x="35" y="-10"/>
    </contour>
  </outline>
</glyph>
<glyph name="ezh.sc" format="2">
  <advance width="584"/>
  <guideline x="247" y="94" angle="258.7"/>
  <anchor x="228" y="0" name="bottom"/>
  <anchor x="344" y="582" name="top"/>
  <outline>
    <contour>
      <point x="217" y="-14" type="curve" smooth="yes"/>
      <point x="388" y="-14"/>
      <point x="546" y="61"/>
      <point x="546" y="202" type="curve" smooth="yes"/>
      <point x="546" y="302"/>
      <point x="467" y="361"/>
      <point x="322" y="361" type="curve" smooth="yes"/>
      <point x="275" y="361" type="line"/>
      <point x="354" y="308" type="line"/>
      <point x="565" y="454" type="line"/>
      <point x="588" y="582" type="line"/>
      <point x="104" y="582" type="line"/>
      <point x="73" y="425" type="line"/>
      <point x="400" y="425" type="line"/>
      <point x="394" y="495" type="line"/>
      <point x="191" y="349" type="line"/>
      <point x="173" y="220" type="line"/>
      <point x="293" y="220" type="line" smooth="yes"/>
      <point x="328" y="220"/>
      <point x="336" y="209"/>
      <point x="336" y="197" type="curve" smooth="yes"/>
      <point x="336" y="165"/>
      <point x="283" y="151"/>
      <point x="221" y="151" type="curve" smooth="yes"/>
      <point x="161" y="151"/>
      <point x="93" y="164"/>
      <point x="57" y="187" type="curve"/>
      <point x="-29" y="40" type="line"/>
      <point x="45" y="4"/>
      <point x="133" y="-14"/>
    </contour>
  </outline>
</glyph>
<glyph name="f.sc.ss01" format="2">
  <advance width="549"/>
  <outline>
    <contour>
      <point x="-6" y="0" type="line"/>
      <point x="224" y="0" type="line"/>
      <point x="292" y="337" type="line" smooth="yes"/>
      <point x="303" y="392"/>
      <point x="346" y="417"/>
      <point x="408" y="417" type="curve" smooth="yes"/>
      <point x="437" y="417"/>
      <point x="476" y="410"/>
      <point x="503" y="395" type="curve"/>
      <point x="601" y="559" type="line"/>
      <point x="556" y="583"/>
      <point x="480" y="597"/>
      <point x="419" y="597" type="curve" smooth="yes"/>
      <point x="214" y="597"/>
      <point x="95" y="506"/>
      <point x="60" y="332" type="curve" smooth="yes"/>
    </contour>
    <contour>
      <point x="170" y="174" type="line"/>
      <point x="453" y="174" type="line"/>
      <point x="486" y="339" type="line"/>
      <point x="203" y="339" type="line"/>
    </contour>
  </outline>
</glyph>
<glyph name="four.tf" format="2">
  <advance width="700"/>
  <guideline x="253" y="228" angle="90"/>
  <outline>
    <contour>
      <point x="-14" y="120" type="line"/>
      <point x="636" y="120" type="line"/>
      <point x="673" y="303" type="line"/>
      <point x="166" y="303" type="line"/>
      <point x="270" y="270" type="line"/>
      <point x="625" y="700" type="line"/>
      <point x="371" y="700" type="line"/>
      <point x="16" y="270" type="line"/>
    </contour>
    <contour>
      <point x="305" y="0" type="line"/>
      <point x="529" y="0" type="line"/>
      <point x="609" y="400" type="line"/>
      <point x="401" y="400" type="line"/>
      <point x="382" y="303" type="line"/>
      <point x="329" y="120" type="line"/>
    </contour>
  </outline>
</glyph>
<glyph name="ge-cy.loclBGR" format="2">
  <advance width="569"/>
  <outline>
    <contour>
      <point x="253" y="-11" type="curve" smooth="yes"/>
      <point x="340" y="-11"/>
      <point x="428" y="9"/>
      <point x="503" y="44" type="curve"/>
      <point x="472" y="184" type="line"/>
      <point x="426" y="163"/>
      <point x="330" y="144"/>
      <point x="268" y="144" type="curve" smooth="yes"/>
      <point x="227" y="144"/>
      <point x="206" y="152"/>
      <point x="206" y="168" type="curve" smooth="yes"/>
      <point x="206" y="190"/>
      <point x="249" y="195"/>
      <point x="306" y="202" type="curve" smooth="yes"/>
      <point x="411" y="215"/>
      <point x="563" y="233"/>
      <point x="563" y="377" type="curve" smooth="yes"/>
      <point x="563" y="490"/>
      <point x="470" y="560"/>
      <point x="315" y="560" type="curve" smooth="yes"/>
      <point x="239" y="560"/>
      <point x="155" y="543"/>
      <point x="86" y="512" type="curve"/>
      <point x="117" y="371" type="line"/>
      <point x="158" y="388"/>
      <point x="236" y="402"/>
      <point x="290" y="402" type="curve" smooth="yes"/>
      <point x="331" y="402"/>
      <point x="352" y="394"/>
      <point x="352" y="378" type="curve" smooth="yes"/>
      <point x="352" y="354"/>
      <point x="307" y="348"/>
      <point x="248" y="340" type="curve" smooth="yes"/>
      <point x="143" y="326"/>
      <point x="-4" y="307"/>
      <point x="-4" y="169" type="curve" smooth="yes"/>
      <point x="-4" y="57"/>
      <point x="94" y="-11"/>
    </contour>
  </outline>
</glyph>
<glyph name="ghestroke-cy.loclBSH" format="2">
  <advance width="553"/>
  <outline>
    <contour>
      <point x="-2" y="0" type="line"/>
      <point x="223" y="0" type="line"/>
      <point x="297" y="371" type="line"/>
      <point x="559" y="371" type="line"/>
      <point x="595" y="547" type="line"/>
      <point x="108" y="547" type="line"/>
    </contour>
    <contour>
      <point x="143" y="169" type="line"/>
      <point x="459" y="169" type="line"/>
      <point x="483" y="289" type="line"/>
      <point x="167" y="289" type="line"/>
    </contour>
  </outline>
</glyph>
<glyph name="gravecomb.loclVIET" format="2">
  <anchor x="355" y="547" name="_top"/>
  <anchor x="392" y="730" name="top"/>
  <outline>
    <contour>
      <point x="322" y="607" type="line"/>
      <point x="472" y="607" type="line"/>
      <point x="396" y="737" type="line"/>
      <point x="181" y="737" type="line"/>
    </contour>
  </outline>
</glyph>
<glyph name="guarani.BRACKET.170" format="2">
  <advance width="769"/>
  <outline>
    <contour>
      <point x="400" y="-16" type="curve" smooth="yes"/>
      <point x="511" y="-16"/>
      <point x="610" y="14"/>
      <point x="684" y="67" type="curve"/>
      <point x="595" y="235" type="line"/>
      <point x="539" y="191"/>
      <point x="486" y="175"/>
      <point x="433" y="175" type="curve" smooth="yes"/>
      <point x="336" y="175"/>
      <point x="279" y="230"/>
      <point x="279" y="312" type="curve" smooth="yes"/>
      <point x="279" y="437"/>
      <point x="357" y="525"/>
      <point x="480" y="525" type="curve" smooth="yes"/>
      <point x="546" y="525"/>
      <point x="595" y="506"/>
      <point x="640" y="448" type="curve"/>
      <point x="809" y="579" type="line"/>
      <point x="743" y="669"/>
      <point x="638" y="716"/>
      <point x="491" y="716" type="curve" smooth="yes"/>
      <point x="224" y="716"/>
      <point x="41" y="543"/>
      <point x="41" y="297" type="curve" smooth="yes"/>
      <point x="41" y="111"/>
      <point x="183" y="-16"/>
    </contour>
    <contour>
      <point x="273" y="-120" type="line"/>
      <point x="414" y="-120" type="line"/>
      <point x="440" y="10" type="line"/>
      <point x="299" y="10" type="line"/>
    </contour>
    <contour>
      <point x="486" y="103" type="line"/>
      <point x="684" y="67" type="line"/>
      <point x="744" y="369" type="line"/>
      <point x="539" y="369" type="line"/>
    </contour>
    <contour>
      <point x="435" y="690" type="line"/>
      <point x="576" y="690" type="line"/>
      <point x="602" y="820" type="line"/>
      <point x="461" y="820" type="line"/>
    </contour>
  </outline>
</glyph>
<glyph name="guilsinglright.sc" format="2">
  <advance width="344"/>
  <outline>
    <contour>
      <point x="234" y="471" type="line"/>
      <point x="58" y="471" type="line"/>
      <point x="180" y="208" type="line"/>
      <point x="193" y="360" type="line"/>
      <point x="-22" y="111" type="line"/>
      <point x="162" y="111" type="line"/>
      <point x="322" y="291" type="line"/>
    </contour>
  </outline>
</glyph>
<glyph name="hardsign-cy.ss01" format="2">
  <advance width="776"/>
  <outline>
    <contour>
      <point x="217" y="371" type="line"/>
      <point x="456" y="547" type="line"/>
      <point x="67" y="547" type="line"/>
      <point x="32" y="371" type="line"/>
    </contour>
    <contour>
      <point x="419" y="-16" type="curve" smooth="yes"/>
      <point x="625" y="-16"/>
      <point x="749" y="79"/>
      <point x="749" y="236" type="curve" smooth="yes"/>
      <point x="749" y="352"/>
      <point x="683" y="410"/>
      <point x="550" y="410" type="curve" smooth="yes"/>
      <point x="500" y="410"/>
      <point x="455" y="402"/>
      <point x="424" y="386" type="curve"/>
      <point x="456" y="547" type="line"/>
      <point x="231" y="547" type="line"/>
      <point x="167" y="230" type="line" smooth="yes"/>
      <point x="135" y="70"/>
      <point x="222" y="-16"/>
    </contour>
    <contour>
      <point x="438" y="136" type="curve" smooth="yes"/>
      <point x="396" y="136"/>
      <point x="379" y="159"/>
      <point x="387" y="200" type="curve" smooth="yes"/>
      <point x="395" y="241" type="line"/>
      <point x="414" y="256"/>
      <point x="441" y="265"/>
      <point x="467" y="265" type="curve" smooth="yes"/>
      <point x="501" y="265"/>
      <point x="518" y="248"/>
      <point x="518" y="213" type="curve" smooth="yes"/>
      <point x="518" y="167"/>
      <point x="486" y="136"/>
    </contour>
  </outline>
</glyph>
<glyph name="i.sc" format="2">
  <advance width="336"/>
  <anchor x="113" y="0" name="bottom"/>
  <anchor x="228" y="0" name="ogonek"/>
  <anchor x="229" y="582" name="top"/>
  <anchor x="61" y="582" name="topleft"/>
  <outline>
    <contour>
      <point x="-2" y="0" type="line"/>
      <point x="228" y="0" type="line"/>
      <point x="344" y="582" type="line"/>
      <point x="114" y="582" type="line"/>
    </contour>
  </outline>
</glyph>
<glyph name="i.sc.ss01" format="2">
  <advance width="472"/>
  <anchor x="181" y="0" name="bottom"/>
  <anchor x="296" y="0" name="ogonek"/>
  <anchor x="297" y="582" name="top"/>
  <anchor x="51" y="582" name="topleft"/>
  <outline>
    <contour>
      <point x="70" y="18" type="line"/>
      <point x="300" y="18" type="line"/>
      <point x="409" y="565" type="line"/>
      <point x="179" y="565" type="line"/>
    </contour>
    <contour>
      <point x="-16" y="0" type="line"/>
      <point x="378" y="0" type="line"/>
      <point x="411" y="165" type="line"/>
      <point x="17" y="165" type="line"/>
    </contour>
    <contour>
      <point x="67" y="417" type="line"/>
      <point x="461" y="417" type="line"/>
      <point x="494" y="582" type="line"/>
      <point x="100" y="582" type="line"/>
    </contour>
  </outline>
</glyph>
<glyph name="iacute_j.loclNLD.sc.ss01" format="2">
  <advance width="642"/>
  <outline>
    <contour>
      <point x="211" y="-9" type="curve" smooth="yes"/>
      <point x="407" y="-9"/>
      <point x="550" y="96"/>
      <point x="587" y="282" type="curve" smooth="yes"/>
      <point x="647" y="582" type="line"/>
      <point x="417" y="582" type="line"/>
      <point x="355" y="270" type="line" smooth="yes"/>
      <point x="341" y="198"/>
      <point x="301" y="168"/>
      <point x="236" y="168" type="curve" smooth="yes"/>
      <point x="180" y="168"/>
      <point x="129" y="186"/>
      <point x="86" y="221" type="curve"/>
      <point x="-29" y="61" type="line"/>
      <point x="26" y="18"/>
      <point x="101" y="-9"/>
    </contour>
    <contour>
      <point x="34" y="285" type="line"/>
      <point x="264" y="285" type="line"/>
      <point x="323" y="582" type="line"/>
      <point x="93" y="582" type="line"/>
    </contour>
    <contour>
      <point x="111" y="642" type="line"/>
      <point x="261" y="642" type="line"/>
      <point x="490" y="802" type="line"/>
      <point x="275" y="802" type="line"/>
    </contour>
    <contour>
      <point x="436" y="642" type="line"/>
      <point x="586" y="642" type="line"/>
      <point x="815" y="802" type="line"/>
      <point x="600" y="802" type="line"/>
    </contour>
  </outline>
</glyph>
<glyph name="ka-cy.loclBGR" format="2">
  <advance width="689"/>
  <anchor x="636" y="0" name="bottomright"/>
  <anchor x="416" y="547" name="top"/>
  <outline>
    <contour>
      <point x="374" y="0" type="line"/>
      <point x="636" y="0" type="line"/>
      <point x="472" y="337" type="line"/>
      <point x="285" y="251" type="line"/>
    </contour>
    <contour>
      <point x="-2" y="0" type="line"/>
      <point x="221" y="0" type="line"/>
      <point x="369" y="742" type="line"/>
      <point x="146" y="742" type="line"/>
    </contour>
    <contour>
      <point x="191" y="182" type="line"/>
      <point x="395" y="182" type="line"/>
      <point x="430" y="355" type="line"/>
      <point x="226" y="355" type="line"/>
    </contour>
    <contour>
      <point x="482" y="246" type="line"/>
      <point x="740" y="547" type="line"/>
      <point x="497" y="547" type="line"/>
      <point x="267" y="269" type="line"/>
    </contour>
  </outline>
</glyph>
<glyph name="n.sc.ss01" format="2">
  <advance width="701"/>
  <anchor x="298" y="0" name="bottom"/>
  <anchor x="414" y="582" name="top"/>
  <outline>
    <contour>
      <point x="-2" y="0" type="line"/>
      <point x="227" y="0" type="line"/>
      <point x="291" y="320" type="line" smooth="yes"/>
      <point x="306" y="393"/>
      <point x="342" y="417"/>
      <point x="381" y="417" type="curve" smooth="yes"/>
      <point x="425" y="417"/>
      <point x="445" y="385"/>
      <point x="432" y="321" type="curve" smooth="yes"/>
      <point x="368" y="0" type="line"/>
      <point x="598" y="0" type="line"/>
      <point x="661" y="316" type="line" smooth="yes"/>
      <point x="696" y="493"/>
      <point x="618" y="597"/>
      <point x="477" y="597" type="curve" smooth="yes"/>
      <point x="402" y="597"/>
      <point x="332" y="560"/>
      <point x="286" y="490" type="curve"/>
      <point x="309" y="447" type="line"/>
      <point x="336" y="582" type="line"/>
      <point x="114" y="582" type="line"/>
    </contour>
  </outline>
</glyph>
<glyph name="ogonekcomb.i" format="2">
  <anchor x="246" y="0" name="_ogonek"/>
  <outline>
    <contour>
      <point x="144" y="-240" type="curve" smooth="yes"/>
      <point x="174" y="-240"/>
      <point x="206" y="-233"/>
      <point x="230" y="-217" type="curve"/>
      <point x="220" y="-127" type="line"/>
      <point x="209" y="-134"/>
      <point x="197" y="-138"/>
      <point x="185" y="-138" type="curve" smooth="yes"/>
      <point x="167" y="-138"/>
      <point x="156" y="-126"/>
      <point x="156" y="-107" type="curve" smooth="yes"/>
      <point x="156" y="-72"/>
      <point x="184" y="-38"/>
      <point x="246" y="0" type="curve"/>
      <point x="196" y="51" type="line"/>
      <point x="91" y="17"/>
      <point x="17" y="-47"/>
      <point x="17" y="-132" type="curve" smooth="yes"/>
      <point x="17" y="-193"/>
      <point x="62" y="-240"/>
    </contour>
  </outline>
</glyph>
<glyph name="one.osf" format="2">
  <advance width="418"/>
  <outline>
    <contour>
      <point x="70" y="0" type="line"/>
      <point x="306" y="0" type="line"/>
      <point x="426" y="600" type="line"/>
      <point x="70" y="600" type="line"/>
      <point x="34" y="422" type="line"/>
      <point x="255" y="422" type="line"/>
      <point x="173" y="516" type="line"/>
    </contour>
  </outline>
</glyph>
<glyph name="p.sc" format="2">
  <advance width="653"/>
  <outline>
    <contour>
      <point x="-2" y="0" type="line"/>
      <point x="228" y="0" type="line"/>
      <point x="274" y="230" type="line"/>
      <point x="152" y="135" type="line"/>
      <point x="342" y="135" type="line" smooth="yes"/>
      <point x="527" y="135"/>
      <point x="647" y="237"/>
      <point x="647" y="383" type="curve" smooth="yes"/>
      <point x="647" y="508"/>
      <point x="554" y="582"/>
      <point x="390" y="582" type="curve" smooth="yes"/>
      <point x="114" y="582" type="line"/>
    </contour>
    <contour>
      <point x="269" y="205" type="line"/>
      <point x="330" y="511" type="line"/>
      <point x="209" y="413" type="line"/>
      <point x="355" y="413" type="line" smooth="yes"/>
      <point x="391" y="413"/>
      <point x="414" y="398"/>
      <point x="414" y="363" type="curve" smooth="yes"/>
      <point x="414" y="328"/>
      <point x="392" y="303"/>
      <point x="352" y="303" type="curve" smooth="yes"/>
      <point x="188" y="303" type="line"/>
    </contour>
  </outline>
</glyph>
<glyph name="peso.BRACKET.130" format="2">
  <advance width="896"/>
  <outline>
    <contour>
      <point x="65" y="0" type="line"/>
      <point x="301" y="0" type="line"/>
      <point x="356" y="275" type="line"/>
      <point x="230" y="172" type="line"/>
      <point x="456" y="172" type="line" smooth="yes"/>
      <point x="671" y="172"/>
      <point x="810" y="291"/>
      <point x="810" y="468" type="curve" smooth="yes"/>
      <point x="810" y="614"/>
      <point x="704" y="700"/>
      <point x="519" y="700" type="curve" smooth="yes"/>
      <point x="205" y="700" type="line"/>
    </contour>
    <contour>
      <point x="37" y="311" type="line"/>
      <point x="179" y="311" type="line"/>
      <point x="202" y="423" type="line"/>
      <point x="60" y="423" type="line"/>
    </contour>
    <contour>
      <point x="65" y="449" type="line"/>
      <point x="207" y="449" type="line"/>
      <point x="229" y="561" type="line"/>
      <point x="87" y="561" type="line"/>
    </contour>
    <contour>
      <point x="350" y="247" type="line"/>
      <point x="426" y="628" type="line"/>
      <point x="300" y="518" type="line"/>
      <point x="483" y="518" type="line" smooth="yes"/>
      <point x="537" y="518"/>
      <point x="571" y="497"/>
      <point x="571" y="447" type="curve" smooth="yes"/>
      <point x="571" y="388"/>
      <point x="533" y="354"/>
      <point x="468" y="354" type="curve" smooth="yes"/>
      <point x="267" y="354" type="line"/>
    </contour>
    <contour>
      <point x="642" y="311" type="line"/>
      <point x="873" y="311" type="line"/>
      <point x="896" y="423" type="line"/>
      <point x="686" y="423" type="line"/>
    </contour>
    <contour>
      <point x="692" y="449" type="line"/>
      <point x="901" y="449" type="line"/>
      <point x="923" y="561" type="line"/>
      <point x="690" y="561" type="line"/>
    </contour>
  </outline>
</glyph>
<glyph name="question.sc" format="2">
  <advance width="546"/>
  <outline>
    <contour>
      <point x="168" y="248" type="curve"/>
      <point x="372" y="248" type="line"/>
      <point x="384" y="312"/>
      <point x="551" y="331"/>
      <point x="551" y="454" type="curve" smooth="yes"/>
      <point x="551" y="537"/>
      <point x="453" y="592"/>
      <point x="319" y="592" type="curve" smooth="yes"/>
      <point x="192" y="592"/>
      <point x="87" y="545"/>
      <point x="32" y="469" type="curve"/>
      <point x="175" y="380" type="line"/>
      <point x="195" y="408"/>
      <point x="229" y="426"/>
      <point x="266" y="426" type="curve" smooth="yes"/>
      <point x="290" y="426"/>
      <point x="307" y="418"/>
      <point x="307" y="401" type="curve" smooth="yes"/>
      <point x="307" y="357"/>
      <point x="185" y="332"/>
    </contour>
    <contour>
      <point x="237" y="-10" type="curve" smooth="yes"/>
      <point x="322" y="-10"/>
      <point x="376" y="47"/>
      <point x="376" y="109" type="curve" smooth="yes"/>
      <point x="376" y="162"/>
      <point x="331" y="208"/>
      <point x="251" y="208" type="curve" smooth="yes"/>
      <point x="166" y="208"/>
      <point x="112" y="155"/>
      <point x="112" y="91" type="curve" smooth="yes"/>
      <point x="112" y="39"/>
      <point x="157" y="-10"/>
    </contour>
  </outline>
</glyph>
<glyph name="quoteright.sc" format="2">
  <advance width="304"/>
  <outline>
    <contour>
      <point x="40" y="230" type="line"/>
      <point x="180" y="230" type="line"/>
      <point x="276" y="367" type="line" smooth="yes"/>
      <point x="312" y="419"/>
      <point x="324" y="446"/>
      <point x="324" y="478" type="curve" smooth="yes"/>
      <point x="324" y="544"/>
      <point x="275" y="592"/>
      <point x="201" y="592" type="curve" smooth="yes"/>
      <point x="122" y="592"/>
      <point x="59" y="537"/>
      <point x="59" y="459" type="curve" smooth="yes"/>
      <point x="59" y="398"/>
      <point x="110" y="349"/>
      <point x="183" y="349" type="curve"/>
      <point x="159" y="475" type="line"/>
    </contour>
  </outline>
</glyph>
<glyph name="ringcomb_acutecomb" format="2">
  <anchor x="355" y="547" name="_top"/>
  <anchor x="412" y="830" name="top"/>
  <outline>
    <contour>
      <point x="390" y="590" type="curve" smooth="yes"/>
      <point x="469" y="590"/>
      <point x="530" y="649"/>
      <point x="530" y="724" type="curve" smooth="yes"/>
      <point x="530" y="799"/>
      <point x="469" y="858"/>
      <point x="390" y="858" type="curve" smooth="yes"/>
      <point x="311" y="858"/>
      <point x="250" y="799"/>
      <point x="250" y="724" type="curve" smooth="yes"/>
      <point x="250" y="649"/>
      <point x="311" y="590"/>
    </contour>
    <contour>
      <point x="390" y="670" type="curve" smooth="yes"/>
      <point x="360" y="670"/>
      <point x="336" y="692"/>
      <point x="336" y="724" type="curve" smooth="yes"/>
      <point x="336" y="756"/>
      <point x="360" y="778"/>
      <point x="390" y="778" type="curve" smooth="yes"/>
      <point x="420" y="778"/>
      <point x="444" y="756"/>
      <point x="444" y="724" type="curve" smooth="yes"/>
      <point x="444" y="692"/>
      <point x="420" y="670"/>
    </contour>
    <contour>
      <point x="495" y="774" type="line"/>
      <point x="638" y="867" type="line"/>
      <point x="529" y="948" type="line"/>
      <point x="393" y="805" type="line"/>
    </contour>
  </outline>
</glyph>
<glyph name="schwa.sc.ss01" format="2">
  <advance width="693"/>
  <anchor x="292" y="0" name="bottom"/>
  <anchor x="407" y="582" name="top"/>
  <outline>
    <contour>
      <point x="328" y="-15" type="curve" smooth="yes"/>
      <point x="518" y="-15"/>
      <point x="672" y="108"/>
      <point x="672" y="323" type="curve" smooth="yes"/>
      <point x="672" y="488"/>
      <point x="545" y="597"/>
      <point x="359" y="597" type="curve" smooth="yes"/>
      <point x="257" y="597"/>
      <point x="158" y="565"/>
      <point x="81" y="500" type="curve"/>
      <point x="186" y="356" type="line"/>
      <point x="235" y="397"/>
      <point x="288" y="417"/>
      <point x="343" y="417" type="curve" smooth="yes"/>
      <point x="403" y="417"/>
      <point x="444" y="381"/>
      <point x="444" y="321" type="curve" smooth="yes"/>
      <point x="444" y="216"/>
      <point x="410" y="148"/>
      <point x="334" y="148" type="curve" smooth="yes"/>
      <point x="258" y="148"/>
      <point x="223" y="202"/>
      <point x="251" y="274" type="curve"/>
      <point x="151" y="142" type="line"/>
      <point x="491" y="271" type="line"/>
      <point x="469" y="391" type="line"/>
      <point x="14" y="223" type="line"/>
      <point x="25" y="77"/>
      <point x="153" y="-15"/>
    </contour>
  </outline>
</glyph>
<glyph name="six.dnom" format="2">
  <advance width="430"/>
  <outline>
    <contour>
      <point x="197" y="-10" type="curve" smooth="yes"/>
      <point x="321" y="-10"/>
      <point x="394" y="60"/>
      <point x="394" y="152" type="curve" smooth="yes"/>
      <point x="394" y="226"/>
      <point x="332" y="270"/>
      <point x="257" y="270" type="curve" smooth="yes"/>
      <point x="192" y="270"/>
      <point x="154" y="252"/>
      <point x="117" y="200" type="curve"/>
      <point x="149" y="182" type="line"/>
      <point x="150" y="193"/>
      <point x="149" y="203"/>
      <point x="152" y="220" type="curve" smooth="yes"/>
      <point x="162" y="270"/>
      <point x="197" y="311"/>
      <point x="281" y="311" type="curve" smooth="yes"/>
      <point x="317" y="311"/>
      <point x="343" y="305"/>
      <point x="371" y="294" type="curve"/>
      <point x="433" y="399" type="line"/>
      <point x="401" y="416"/>
      <point x="348" y="425"/>
      <point x="282" y="425" type="curve" smooth="yes"/>
      <point x="115" y="425"/>
      <point x="-8" y="329"/>
      <point x="-8" y="171" type="curve" smooth="yes"/>
      <point x="-8" y="62"/>
      <point x="71" y="-10"/>
    </contour>
    <contour>
      <point x="195" y="91" type="curve" smooth="yes"/>
      <point x="165" y="91"/>
      <point x="148" y="108"/>
      <point x="148" y="126" type="curve" smooth="yes"/>
      <point x="148" y="153"/>
      <point x="169" y="170"/>
      <point x="201" y="170" type="curve" smooth="yes"/>
      <point x="225" y="170"/>
      <point x="246" y="157"/>
      <point x="246" y="135" type="curve" smooth="yes"/>
      <point x="246" y="107"/>
      <point x="226" y="91"/>
    </contour>
  </outline>
</glyph>
<glyph name="slashlongcomb.sc" format="2">
  <anchor x="341" y="291" name="_center"/>
  <outline>
    <contour>
      <point x="-42" y="-58" type="line"/>
      <point x="89" y="-58" type="line"/>
      <point x="724" y="640" type="line"/>
      <point x="593" y="640" type="line"/>
    </contour>
  </outline>
</glyph>
<glyph name="three.tf" format="2">
  <advance width="700"/>
  <outline>
    <contour>
      <point x="284" y="-16" type="curve" smooth="yes"/>
      <point x="502" y="-16"/>
      <point x="652" y="95"/>
      <point x="652" y="246" type="curve" smooth="yes"/>
      <point x="652" y="359"/>
      <point x="558" y="433"/>
      <point x="413" y="433" type="curve" smooth="yes"/>
      <point x="361" y="433" type="line"/>
      <point x="454" y="371" type="line"/>
      <point x="678" y="555" type="line"/>
      <point x="707" y="700" type="line"/>
      <point x="152" y="700" type="line"/>
      <point x="116" y="522" type="line"/>
      <point x="498" y="522" type="line"/>
      <point x="483" y="601" type="line"/>
      <point x="259" y="417" type="line"/>
      <point x="230" y="272" type="line"/>
      <point x="347" y="272" type="line" smooth="yes"/>
      <point x="392" y="272"/>
      <point x="414" y="258"/>
      <point x="414" y="231" type="curve" smooth="yes"/>
      <point x="414" y="191"/>
      <point x="378" y="170"/>
      <point x="308" y="170" type="curve" smooth="yes"/>
      <point x="239" y="170"/>
      <point x="161" y="191"/>
      <point x="100" y="231" type="curve"/>
      <point x="-15" y="57" type="line"/>
      <point x="57" y="12"/>
      <point x="169" y="-16"/>
    </contour>
  </outline>
</glyph>
<glyph name="tildecomb.loclVIET" format="2">
  <anchor x="355" y="547" name="_top"/>
  <anchor x="392" y="730" name="top"/>
  <outline>
    <contour>
      <point x="449" y="597" type="curve" smooth="yes"/>
      <point x="539" y="597"/>
      <point x="592" y="654"/>
      <point x="605" y="746" type="curve"/>
      <point x="498" y="746" type="line"/>
      <point x="493" y="724"/>
      <point x="477" y="705"/>
      <point x="451" y="705" type="curve" smooth="yes"/>
      <point x="417" y="705"/>
      <point x="385" y="755"/>
      <point x="313" y="755" type="curve" smooth="yes"/>
      <point x="227" y="755"/>
      <point x="171" y="701"/>
      <point x="157" y="606" type="curve"/>
      <point x="267" y="606" type="line"/>
      <point x="272" y="630"/>
      <point x="289" y="647"/>
      <point x="313" y="647" type="curve" smooth="yes"/>
      <point x="346" y="647"/>
      <point x="377" y="597"/>
    </contour>
  </outline>
</glyph>
<glyph name="tildecomb.narrow" format="2">
  <anchor x="355" y="547" name="_top"/>
  <anchor x="396" y="750" name="top"/>
  <outline>
    <contour>
      <point x="446" y="597" type="curve" smooth="yes"/>
      <point x="525" y="597"/>
      <point x="571" y="655"/>
      <point x="584" y="767" type="curve"/>
      <point x="479" y="767" type="line"/>
      <point x="475" y="734"/>
      <point x="463" y="716"/>
      <point x="445" y="716" type="curve" smooth="yes"/>
      <point x="417" y="716"/>
      <point x="390" y="780"/>
      <point x="321" y="780" type="curve" smooth="yes"/>
      <point x="242" y="780"/>
      <point x="196" y="722"/>
      <point x="182" y="607" type="curve"/>
      <point x="287" y="607" type="line"/>
      <point x="292" y="642"/>
      <point x="304" y="661"/>
      <point x="322" y="661" type="curve" smooth="yes"/>
      <point x="350" y="661"/>
      <point x="377" y="597"/>
    </contour>
  </outline>
</glyph>
<glyph name="udieresis.sc.ss01.alt" format="2">
  <advance width="701"/>
  <outline>
    <contour>
      <point x="228" y="-15" type="curve" smooth="yes"/>
      <point x="303" y="-15"/>
      <point x="373" y="22"/>
      <point x="419" y="92" type="curve"/>
      <point x="397" y="135" type="line"/>
      <point x="370" y="0" type="line"/>
      <point x="593" y="0" type="line"/>
      <point x="709" y="582" type="line"/>
      <point x="479" y="582" type="line"/>
      <point x="415" y="262" type="line" smooth="yes"/>
      <point x="400" y="189"/>
      <point x="364" y="165"/>
      <point x="325" y="165" type="curve" smooth="yes"/>
      <point x="280" y="165"/>
      <point x="262" y="197"/>
      <point x="275" y="261" type="curve" smooth="yes"/>
      <point x="339" y="582" type="line"/>
      <point x="109" y="582" type="line"/>
      <point x="44" y="255" type="line" smooth="yes"/>
      <point x="11" y="88"/>
      <point x="77" y="-15"/>
    </contour>
    <contour>
      <point x="346" y="455" type="curve" smooth="yes"/>
      <point x="387" y="455"/>
      <point x="424" y="485"/>
      <point x="424" y="533" type="curve" smooth="yes"/>
      <point x="424" y="572"/>
      <point x="395" y="597"/>
      <point x="357" y="597" type="curve" smooth="yes"/>
      <point x="316" y="597"/>
      <point x="279" y="566"/>
      <point x="279" y="518" type="curve" smooth="yes"/>
      <point x="279" y="479"/>
      <point x="308" y="455"/>
    </contour>
    <contour>
      <point x="435" y="455" type="curve" smooth="yes"/>
      <point x="476" y="455"/>
      <point x="513" y="485"/>
      <point x="513" y="533" type="curve" smooth="yes"/>
      <point x="513" y="572"/>
      <point x="484" y="597"/>
      <point x="446" y="597" type="curve" smooth="yes"/>
      <point x="405" y="597"/>
      <point x="368" y="566"/>
      <point x="368" y="518" type="curve" smooth="yes"/>
      <point x="368" y="479"/>
      <point x="397" y="455"/>
    </contour>
  </outline>
</glyph>
<glyph name="ve-cy.loclBGR" format="2">
  <advance width="660"/>
  <outline>
    <contour>
      <point x="296" y="-14" type="curve" smooth="yes"/>
      <point x="490" y="-14"/>
      <point x="633" y="92"/>
      <point x="633" y="235" type="curve" smooth="yes"/>
      <point x="633" y="346"/>
      <point x="547" y="412"/>
      <point x="403" y="412" type="curve"/>
      <point x="373" y="358" type="line"/>
      <point x="538" y="358"/>
      <point x="667" y="455"/>
      <point x="667" y="580" type="curve" smooth="yes"/>
      <point x="667" y="688"/>
      <point x="571" y="756"/>
      <point x="422" y="756" type="curve" smooth="yes"/>
      <point x="249" y="756"/>
      <point x="118" y="665"/>
      <point x="89" y="520" type="curve" smooth="yes"/>
      <point x="27" y="210" type="line" smooth="yes"/>
      <point x="1" y="80"/>
      <point x="113" y="-14"/>
    </contour>
    <contour>
      <point x="311" y="155" type="curve" smooth="yes"/>
      <point x="268" y="155"/>
      <point x="246" y="178"/>
      <point x="253" y="216" type="curve" smooth="yes"/>
      <point x="270" y="300" type="line"/>
      <point x="351" y="300" type="line" smooth="yes"/>
      <point x="389" y="300"/>
      <point x="405" y="284"/>
      <point x="405" y="249" type="curve" smooth="yes"/>
      <point x="405" y="194"/>
      <point x="367" y="155"/>
    </contour>
    <contour>
      <point x="301" y="456" type="line"/>
      <point x="318" y="534" type="line" smooth="yes"/>
      <point x="325" y="567"/>
      <point x="348" y="584"/>
      <point x="385" y="584" type="curve" smooth="yes"/>
      <point x="419" y="584"/>
      <point x="432" y="570"/>
      <point x="432" y="536" type="curve" smooth="yes"/>
      <point x="432" y="487"/>
      <point x="405" y="456"/>
      <point x="361" y="456" type="curve" smooth="yes"/>
    </contour>
  </outline>
</glyph>
<glyph name="verticalbar-cy.case" format="2">
  <advance width="322"/>
  <anchor x="114" y="0" name="_bottom"/>
  <outline>
    <contour>
      <point x="222" y="40" type="line"/>
      <point x="6" y="40" type="line"/>
      <point x="-29" y="-137" type="line"/>
      <point x="187" y="-137" type="line"/>
    </contour>
  </outline>
</glyph>
<glyph name="w.sc" format="2">
  <advance width="1047"/>
  <anchor x="469" y="0" name="bottom"/>
  <anchor x="585" y="582" name="top"/>
  <outline>
    <contour>
      <point x="139" y="0" type="line"/>
      <point x="386" y="0" type="line"/>
      <point x="581" y="378" type="line"/>
      <point x="511" y="379" type="line"/>
      <point x="548" y="0" type="line"/>
      <point x="795" y="0" type="line"/>
      <point x="1101" y="582" type="line"/>
      <point x="875" y="582" type="line"/>
      <point x="624" y="102" type="line"/>
      <point x="736" y="102" type="line"/>
      <point x="693" y="582" type="line"/>
      <point x="481" y="582" type="line"/>
      <point x="230" y="102" type="line"/>
      <point x="350" y="102" type="line"/>
      <point x="297" y="582" type="line"/>
      <point x="70" y="582" type="line"/>
    </contour>
  </outline>
</glyph>
<glyph name="x.sc" format="2">
  <advance width="669"/>
  <outline>
    <contour>
      <point x="-64" y="0" type="line"/>
      <point x="210" y="0" type="line"/>
      <point x="379" y="205" type="line"/>
      <point x="275" y="206" type="line"/>
      <point x="372" y="0" type="line"/>
      <point x="621" y="0" type="line"/>
      <point x="423" y="361" type="line"/>
      <point x="415" y="235" type="line"/>
      <point x="733" y="582" type="line"/>
      <point x="474" y="582" type="line"/>
      <point x="305" y="382" type="line"/>
      <point x="404" y="385" type="line"/>
      <point x="310" y="582" type="line"/>
      <point x="64" y="582" type="line"/>
      <point x="246" y="238" type="line"/>
      <point x="276" y="368" type="line"/>
    </contour>
  </outline>
</glyph>
<glyph name="y.sc.ss01" format="2">
  <advance width="692"/>
  <anchor x="593" y="13" name="bottom"/>
  <anchor x="405" y="582" name="top"/>
  <outline>
    <contour>
      <point x="476" y="582" type="line"/>
      <point x="441" y="409" type="line" smooth="yes"/>
      <point x="426" y="336"/>
      <point x="390" y="312"/>
      <point x="351" y="312" type="curve" smooth="yes"/>
      <point x="306" y="312"/>
      <point x="286" y="344"/>
      <point x="299" y="408" type="curve" smooth="yes"/>
      <point x="334" y="582" type="line"/>
      <point x="104" y="582" type="line"/>
      <point x="70" y="413" type="line" smooth="yes"/>
      <point x="34" y="235"/>
      <point x="114" y="132"/>
      <point x="264" y="132" type="curve" smooth="yes"/>
      <point x="330" y="132"/>
      <point x="399" y="169"/>
      <point x="445" y="239" type="curve"/>
      <point x="415" y="279" type="line"/>
      <point x="396" y="184" type="line" smooth="yes"/>
      <point x="380" y="104"/>
      <point x="351" y="77"/>
      <point x="287" y="77" type="curve" smooth="yes"/>
      <point x="231" y="77"/>
      <point x="170" y="94"/>
      <point x="110" y="129" type="curve"/>
      <point x="0" y="-30" type="line"/>
      <point x="70" y="-71"/>
      <point x="156" y="-97"/>
      <point x="278" y="-97" type="curve" smooth="yes"/>
      <point x="467" y="-97"/>
      <point x="587" y="-12"/>
      <point x="625" y="178" type="curve" smooth="yes"/>
      <point x="706" y="582" type="line"/>
    </contour>
  </outline>
</glyph>
<glyph name="yat-cy.ss01" format="2">
  <advance width="700"/>
  <outline>
    <contour>
      <point x="39" y="468" type="line"/>
      <point x="549" y="468" type="line"/>
      <point x="575" y="598" type="line"/>
      <point x="65" y="598" type="line"/>
    </contour>
    <contour>
      <point x="343" y="-16" type="curve" smooth="yes"/>
      <point x="549" y="-16"/>
      <point x="673" y="79"/>
      <point x="673" y="236" type="curve" smooth="yes"/>
      <point x="673" y="352"/>
      <point x="607" y="410"/>
      <point x="474" y="410" type="curve" smooth="yes"/>
      <point x="424" y="410"/>
      <point x="379" y="402"/>
      <point x="348" y="386" type="curve"/>
      <point x="419" y="742" type="line"/>
      <point x="194" y="742" type="line"/>
      <point x="91" y="230" type="line" smooth="yes"/>
      <point x="59" y="70"/>
      <point x="146" y="-16"/>
    </contour>
    <contour>
      <point x="362" y="136" type="curve" smooth="yes"/>
      <point x="320" y="136"/>
      <point x="303" y="159"/>
      <point x="311" y="200" type="curve" smooth="yes"/>
      <point x="319" y="241" type="line"/>
      <point x="338" y="256"/>
      <point x="365" y="265"/>
      <point x="391" y="265" type="curve" smooth="yes"/>
      <point x="425" y="265"/>
      <point x="442" y="248"/>
      <point x="442" y="213" type="curve" smooth="yes"/>
      <point x="442" y="167"/>
      <point x="410" y="136"/>
    </contour>
  </outline>
</glyph>
<glyph name="ze-cy.loclBGR" format="2">
  <advance width="540"/>
  <outline>
    <contour>
      <point x="142" y="-200" type="curve" smooth="yes"/>
      <point x="333" y="-200"/>
      <point x="479" y="-90"/>
      <point x="479" y="54" type="curve" smooth="yes"/>
      <point x="479" y="149"/>
      <point x="414" y="208"/>
      <point x="311" y="208" type="curve"/>
      <point x="318" y="184" type="line"/>
      <point x="430" y="184"/>
      <point x="521" y="274"/>
      <point x="521" y="383" type="curve" smooth="yes"/>
      <point x="521" y="491"/>
      <point x="431" y="557"/>
      <point x="281" y="557" type="curve" smooth="yes"/>
      <point x="212" y="557"/>
      <point x="132" y="543"/>
      <point x="47" y="515" type="curve"/>
      <point x="90" y="359" type="line"/>
      <point x="148" y="376"/>
      <point x="195" y="384"/>
      <point x="227" y="384" type="curve" smooth="yes"/>
      <point x="271" y="384"/>
      <point x="291" y="369"/>
      <point x="291" y="336" type="curve" smooth="yes"/>
      <point x="291" y="294"/>
      <point x="258" y="263"/>
      <point x="211" y="263" type="curve" smooth="yes"/>
      <point x="99" y="263" type="line"/>
      <point x="67" y="101" type="line"/>
      <point x="201" y="101" type="line" smooth="yes"/>
      <point x="242" y="101"/>
      <point x="257" y="88"/>
      <point x="257" y="55" type="curve" smooth="yes"/>
      <point x="257" y="1"/>
      <point x="218" y="-27"/>
      <point x="142" y="-27" type="curve" smooth="yes"/>
      <point x="101" y="-27"/>
      <point x="52" y="-19"/>
      <point x="-5" y="-2" type="curve"/>
      <point x="-74" y="-149" type="line"/>
      <point x="2" y="-184"/>
      <point x="70" y="-200"/>
    </contour>
  </outline>
</glyph>
